<svg id="frezare" xmlns:rdf="http://www.w3.org/1999/02/22-rdf-syntax-ns#" xmlns="http://www.w3.org/2000/svg" xml:space="preserve" version="1.1" y="0px" x="0px" xmlns:cc="http://creativecommons.org/ns#" xmlns:dc="http://purl.org/dc/elements/1.1/" viewBox="0 0 960 560">
	<defs>
		<filter id="efecte">
			<feDiffuseLighting in="SourceGraphic" result="lumina" lighting-color="#ccc">
				<fePointLight x="150" y="60" z="20" />
			</feDiffuseLighting>
			<feComposite in="SourceGraphic" in2="lumina" operator="arithmetic" k1="1" k2="0.2" k3="0" k4="0"/>
		</filter>
	</defs>
	<g class="dinamica_frezare" filter1="url(#efecte)">
		<path id="semifabricat" d="m531.78 318c-8.669 2-17.889 4.166-27.45 4.166-1.835 0-3.656-0.166-5.465-0.166h-314.86v52h593v-56h-245.22z" fill="#008BFF" />
		<path id="freza" d="m542.23 232.99c-18.689-1.7568 43.839-28.278 43.839-28.278-4.9114-17.372-35.073-14.246-52.141-2.6119-17.068 11.635 15.368-49.784 15.368-49.784-13.904-10.987-37.93 10.506-41.625 31.439-3.695 20.932-20.294-47.987-20.294-47.987-17.966 1.5144-19.154 33.835-11.634 50.783 7.5196 16.947-46.459-23.748-46.459-23.748-14.025 13.601 6.6783 40.221 23.797 46.365 17.119 6.1433-50.888 11.61-50.888 11.61-2.3986 20.031 31.036 25.632 48.093 20.252 17.058-5.3805-31.504 41.536-31.504 41.536 10.381 15.426 41.212-0.36423 49.886-15.337 8.6737-14.972 2.6206 52.027 2.6206 52.027 17.526 4.9036 29.84-26.599 28.337-43.749-1.5036-17.15 35.519 38.174 35.519 38.174 15.755-9.4911 2.8737-41.804-6.4723-51.691-9.3459-9.8873 51.797 6.4589 51.797 6.4589 7.7145-15.454-19.564-33.692-38.249-35.452zm-45.139 16.363c-12.813 1.1187-24.108-8.3395-25.229-21.126-1.121-12.787 8.3567-24.059 21.17-25.177 12.813-1.1187 24.108 8.3395 25.229 21.126 1.121 12.787-8.3577 24.059-21.17 25.177z" fill="#008BFF" stroke="black" stroke-width="1" />

		<path id="span" d="m314.75 252.62h12.118l-0.13229 0.017c0 24.568 32.428 44.375 72.503 44.375-46.791 0-84.656-19.77-84.656-44.338" fill="#008BFF"/>
	</g>
</svg>