<svg id="frezare" xmlns:rdf="http://www.w3.org/1999/02/22-rdf-syntax-ns#" xmlns="http://www.w3.org/2000/svg" xml:space="preserve" viewBox="0 0 593 238.76617" height="238.77" width="593" version="1.1" y="0px" x="0px" xmlns:cc="http://creativecommons.org/ns#" xmlns:dc="http://purl.org/dc/elements/1.1/">
	<g id="g3403" transform="translate(-184 -135.23)" filter1="url(#efecte)" class="dinamica_frezare">
		<path id="semifabricat" style="fill:#008bff" d="m531.78 318c-8.669 2-17.889 4.166-27.45 4.166-1.835 0-3.656-0.166-5.465-0.166h-314.86v52h593v-56h-245.22z"/>
		<path id="freza" style="stroke:#000;fill:#008bff" d="m542.15 232.94c-18.679-1.7579 43.816-28.296 43.816-28.296-4.9088-17.383-35.054-14.255-52.113-2.6135s15.36-49.815 15.36-49.815c-13.897-10.994-37.91 10.513-41.603 31.459-3.693 20.945-20.283-48.017-20.283-48.017-17.956 1.5154-19.144 33.856-11.628 50.815 7.5156 16.958-46.434-23.763-46.434-23.763-14.018 13.61 6.6747 40.246 23.784 46.394 17.11 6.1472-50.861 11.617-50.861 11.617-2.3973 20.044 31.019 25.648 48.067 20.265 17.049-5.3838-31.487 41.562-31.487 41.562 10.375 15.436 41.19-0.36446 49.859-15.347 8.6691-14.981 2.6192 52.06 2.6192 52.06 17.517 4.9067 29.824-26.616 28.322-43.776-1.5028-17.161 35.5 38.198 35.5 38.198 15.747-9.497 2.8722-41.83-6.4688-51.723-9.3409-9.8935 51.769 6.463 51.769 6.463 7.7104-15.464-19.554-33.713-38.229-35.474zm-45.115 16.373c-12.806 1.1194-24.095-8.3447-25.216-21.139-1.1204-12.795 8.3522-24.074 21.159-25.193 12.806-1.1194 24.095 8.3447 25.216 21.139 1.1204 12.795-8.3532 24.074-21.159 25.193z"/>
		<path id="span" style="fill:#008bff" d="m314.75 252.62h12.118l-0.13229 0.017c0 24.568 32.428 44.375 72.503 44.375-46.791 0-84.656-19.77-84.656-44.338"/>
	</g>
</svg>
