<?xml version="1.0" encoding="utf-8"?>
<!-- Generator: Adobe Illustrator 16.0.0, SVG Export Plug-In . SVG Version: 6.00 Build 0)  -->
<!DOCTYPE svg PUBLIC "-//W3C//DTD SVG 1.1//EN" "http://www.w3.org/Graphics/SVG/1.1/DTD/svg11.dtd">
<svg version="1.1" id="Background" xmlns="http://www.w3.org/2000/svg" xmlns:xlink="http://www.w3.org/1999/xlink" x="0px" y="0px"
	 width="960px" height="560px" viewBox="0 0 960 560" enable-background="new 0 0 960 560" xml:space="preserve">
<g>
	<g>
		<path fill="#F7931E" d="M331.353,389.939v-39.9h10.32v-2.1h21.36v2.1h1.92v39.9H331.353z M364.292,389.219v-38.46h-1.26v6.84
			h-20.64v5.94h12.9v9.72h-12.9v6.721h21.12v7.68h-26.04v-15.061h4.2v-8.34h-4.2v-7.38h4.2v-6.12h-9.6v38.46H364.292z
			 M341.672,363.539v-5.94h-3.48v5.94H341.672z M362.792,386.939v-6.24h-21.12v-7.44h-3.48v13.681H362.792z M362.373,350.039v-1.38
			h-19.98v1.38H362.373z M362.373,356.879v-6.12h-19.98v6.12H362.373z M354.572,372.599v-8.34h-12.18v8.34H354.572z"/>
		<path fill="#F7931E" d="M384.776,390.059h-6.54v-3h-4.32v-26.579h4.32v-7.86h-4.14v-4.62h7.56c2,0,3.939,0.011,5.82,0.03
			c1.88,0.021,3.22,0.029,4.02,0.029c0.84,0,1.73,0.011,2.67,0.03c0.939,0.021,1.629,0.051,2.07,0.09
			c3.24,0.24,5.859,1.001,7.86,2.28c2.16,1.32,3.6,3.2,4.32,5.64c0.08,0.161,0.16,0.441,0.24,0.841
			c0.08,0.399,0.159,0.84,0.24,1.319c0.04,0.28,0.06,0.671,0.06,1.17c0,0.501,0,0.791,0,0.87c0,0.641-0.07,1.4-0.21,2.28
			c-0.141,0.88-0.37,1.7-0.69,2.46c-0.681,1.68-1.62,3.06-2.82,4.14l-0.24,0.181l-1.56-1.38l0.3-0.24
			c0.999-0.92,1.76-2.04,2.28-3.36c0.36-0.879,0.6-1.779,0.72-2.7v-0.06c0.039-0.279,0.06-0.56,0.06-0.84c0-0.279,0-0.56,0-0.84
			c0-0.04-0.011-0.23-0.03-0.57c-0.021-0.34-0.03-0.609-0.03-0.811c-0.081-0.319-0.15-0.649-0.21-0.989s-0.13-0.609-0.21-0.811
			c-0.6-2.04-1.8-3.6-3.6-4.68c-1.68-1.08-3.94-1.74-6.78-1.98c-0.32-0.039-1.11-0.069-2.37-0.09c-1.26-0.02-2.73-0.029-4.41-0.029
			s-3.441,0-5.28,0c-1.84,0-3.48,0-4.92,0v2.039c1.479,0,3.12,0,4.92,0c1.8,0,3.52,0,5.16,0c1.64,0,3.06,0.011,4.26,0.03
			c1.2,0.021,1.92,0.03,2.16,0.03c2.28,0.199,4.1,0.738,5.46,1.617c1.52,0.958,2.52,2.275,3,3.951l0.18,0.539
			c0.04,0.16,0.069,0.32,0.09,0.479c0.02,0.159,0.05,0.319,0.09,0.479c0,0.16,0.009,0.539,0.03,1.139
			c0.02,0.599-0.01,1.178-0.09,1.736v0.06c-0.12,0.64-0.3,1.218-0.54,1.736c-0.4,1.039-1.08,1.957-2.04,2.755
			c-0.96,0.799-1.9,1.396-2.82,1.796l9.42,13.652h-3.06l5.52,7.921h-8.88l-14.64-21.061h-2.4V390.059z M374.636,361.199v25.14h3.6
			v-25.14H374.636z M404.516,367.979l0.48,0.42c1.04-1,1.839-2.2,2.4-3.601c0.28-0.72,0.5-1.509,0.66-2.37
			c0.159-0.859,0.24-1.569,0.24-2.13c0-0.079-0.011-0.369-0.03-0.87c-0.021-0.499-0.051-0.87-0.09-1.109
			c-0.081-0.44-0.16-0.84-0.24-1.2c-0.081-0.36-0.141-0.64-0.18-0.84c-0.72-2.24-2.061-3.979-4.02-5.221
			c-1.92-1.199-4.44-1.92-7.56-2.159c-0.72-0.04-2.26-0.1-4.62-0.181h-16.8v3.3h3.48v-2.76h8.22c1.04,0,2.09,0,3.15,0
			c1.06,0,2.02,0.011,2.88,0.03c0.859,0.021,1.609,0.04,2.25,0.06c0.639,0.021,1.059,0.03,1.26,0.03c2.88,0.24,5.24,0.94,7.08,2.101
			c1.92,1.16,3.219,2.84,3.9,5.039c0.04,0.041,0.11,0.271,0.21,0.69c0.1,0.42,0.17,0.851,0.21,1.29c0.04,0.2,0.069,0.48,0.09,0.84
			c0.02,0.36,0.03,0.561,0.03,0.601c0,0.32,0,0.62,0,0.899c0,0.28-0.04,0.561-0.12,0.84v0.061c-0.12,1.04-0.36,2-0.72,2.88
			c-0.24,0.641-0.55,1.24-0.93,1.8C405.365,366.979,404.956,367.499,404.516,367.979z M404.696,381.299h2.22l-9.24-13.364
			l0.48-0.119c0.919-0.321,1.869-0.871,2.85-1.652c0.979-0.78,1.65-1.651,2.01-2.613c0.12-0.239,0.21-0.499,0.27-0.779
			s0.129-0.561,0.21-0.842v-0.061c0.08-0.479,0.12-1.011,0.12-1.592c0-0.58-0.021-0.95-0.06-1.11c-0.04-0.16-0.06-0.301-0.06-0.421
			c0-0.119-0.04-0.259-0.12-0.421c0-0.119-0.04-0.3-0.12-0.54c-0.48-1.521-1.38-2.702-2.7-3.543c-1.281-0.801-3-1.302-5.16-1.502
			c-0.24,0-0.95-0.01-2.13-0.03c-1.18-0.02-2.59-0.03-4.23-0.03c-1.641,0-3.36-0.009-5.16-0.029c-1.8-0.021-3.44-0.03-4.92-0.03
			v7.86h3.24v-6h0.3c0.12,0,0.77,0,1.95,0c1.179,0,2.479,0,3.9,0c1.419,0,2.75,0.01,3.99,0.029c1.239,0.021,1.98,0.03,2.22,0.03
			c1.6,0.12,2.96,0.521,4.08,1.203c1.119,0.683,1.86,1.665,2.22,2.947c0.08,0.2,0.129,0.4,0.15,0.601
			c0.02,0.201,0.049,0.401,0.09,0.603c0.04,0.24,0.06,0.48,0.06,0.721c0,0.722-0.081,1.343-0.24,1.864v0.061
			c-0.081,0.321-0.16,0.582-0.24,0.781c-0.441,1.164-1.17,2.066-2.19,2.708c-1.02,0.641-2.23,1.002-3.63,1.082L404.696,381.299z
			 M378.956,361.199v25.14h3.12v-18.18h2.04v-2.16h-1.92v-4.8H378.956z M378.956,389.339h5.22v-20.46h-1.32v18.18h-3.9V389.339z
			 M401.396,381.299h2.46l-10.32-14.939h0.66h0.54c1.68-0.08,2.91-0.47,3.69-1.17c0.78-0.7,1.31-1.41,1.59-2.131
			c0.04-0.119,0.08-0.229,0.12-0.329c0.04-0.1,0.08-0.211,0.12-0.33v-0.061c0.12-0.52,0.18-1.1,0.18-1.74
			c0-0.079-0.021-0.319-0.06-0.72c-0.04-0.399-0.1-0.72-0.18-0.96c-0.36-1.119-1.02-1.979-1.98-2.58c-0.88-0.6-2.121-0.96-3.72-1.08
			c-0.201,0-0.831-0.009-1.89-0.029c-1.06-0.021-2.23-0.03-3.51-0.03c-1.281,0-2.514,0-3.701,0c-1.188,0-2.014,0-2.479,0v5.28h1.86
			v4.859h5.46L401.396,381.299z M382.916,365.339h1.26v-4.14h-1.26V365.339z M402.176,389.219h7.14l-4.98-7.2h-3.36l-11.1-16.02
			h-5.1v2.16h2.76L402.176,389.219z"/>
		<path fill="#F7931E" d="M457.831,368.759v0.3c0,2.921-0.55,5.641-1.65,8.16c-1.101,2.521-2.61,4.74-4.53,6.66
			c-1.92,1.92-4.14,3.42-6.66,4.5s-5.241,1.62-8.16,1.62c-2.88,0-5.601-0.55-8.16-1.65c-2.56-1.1-4.791-2.6-6.69-4.5
			c-1.9-1.899-3.4-4.129-4.5-6.689c-1.101-2.56-1.65-5.28-1.65-8.16c0-4.08,1.1-7.86,3.3-11.34l0.24-0.3l2.04,1.319
			c0.639-0.96,1.399-1.899,2.28-2.819c2.319-2.24,5-3.819,8.04-4.74l-0.66-2.34l0.36-0.061c1.719-0.479,3.519-0.72,5.4-0.72
			c2.799,0,5.54,0.561,8.22,1.68c0.279,0.12,0.6,0.271,0.96,0.45c0.36,0.18,0.709,0.37,1.05,0.57c0.339,0.2,0.65,0.381,0.93,0.54
			c0.279,0.16,0.459,0.28,0.54,0.359c-0.041,0.041-0.081,0.091-0.12,0.15c-0.041,0.06-0.201,0.291-0.48,0.69l-0.84,1.14
			c1.04,0.72,1.959,1.48,2.76,2.28l0.12,0.12c1.04,1.04,1.92,2.159,2.64,3.359l0.18,0.36l-1.86,0.899l-0.18-0.239
			c-0.681-1.12-1.46-2.12-2.34-3c-0.84-0.841-1.68-1.54-2.52-2.101l-2.76,3.84l-0.3-0.18c-0.92-0.56-1.9-0.97-2.94-1.229
			c-1.041-0.26-2.1-0.391-3.18-0.391c-1.96,0-3.79,0.44-5.49,1.32c-1.701,0.88-3.13,2.1-4.29,3.66l1.62,1.08l-0.18,0.3
			c-1.08,1.641-1.62,3.44-1.62,5.399c0,1.36,0.25,2.641,0.75,3.841c0.5,1.199,1.19,2.25,2.07,3.149c0.879,0.9,1.91,1.62,3.09,2.16
			c1.179,0.54,2.43,0.831,3.75,0.87v-20.7h0.36c1.479,0,2.87,0.28,4.17,0.84c1.299,0.561,2.439,1.32,3.42,2.28
			c0.98,0.96,1.75,2.091,2.31,3.39c0.56,1.301,0.84,2.691,0.84,4.17c0,1.44-0.27,2.812-0.81,4.11c-0.54,1.301-1.281,2.43-2.22,3.39
			c-0.94,0.96-2.04,1.731-3.3,2.311c-1.26,0.58-2.61,0.891-4.05,0.93v6.96c1.28-0.079,2.439-0.219,3.48-0.42
			c2.439-0.52,4.66-1.509,6.66-2.97c2-1.46,3.64-3.271,4.92-5.43c1.6-2.761,2.4-5.74,2.4-8.94v-0.3L457.831,368.759z
			 M436.831,389.279c2.76,0,5.36-0.52,7.8-1.561c2.439-1.039,4.58-2.46,6.42-4.26c1.839-1.8,3.3-3.909,4.38-6.33
			c1.08-2.42,1.64-5.01,1.68-7.77h-1.8c-0.041,1.6-0.27,3.149-0.69,4.649s-1.03,2.931-1.83,4.29c-1.32,2.241-3.03,4.11-5.13,5.61
			s-4.41,2.53-6.93,3.09c-0.64,0.16-1.281,0.27-1.92,0.33c-0.64,0.06-1.3,0.09-1.98,0.09h-0.42v-7.62
			c-1.44-0.039-2.79-0.35-4.05-0.93c-1.26-0.579-2.36-1.351-3.3-2.311c-0.94-0.96-1.68-2.089-2.22-3.39
			c-0.54-1.299-0.81-2.67-0.81-4.11c0-1.959,0.519-3.799,1.56-5.52l-1.02-0.66c-1.241,2.001-1.86,4.14-1.86,6.42
			c0,1.601,0.29,3.12,0.87,4.561c0.58,1.439,1.449,2.721,2.61,3.84l0.24,0.3l-4.44,4.32l-0.24-0.24l-0.06-0.061
			c-1.521-1.479-2.721-3.169-3.6-5.069c-0.88-1.899-1.44-3.85-1.68-5.851c-0.24-1.999-0.15-4.02,0.27-6.06s1.189-3.96,2.31-5.76
			l-1.44-0.9c-2.001,3.201-3,6.741-3,10.62c0,2.801,0.529,5.43,1.59,7.89c1.059,2.46,2.51,4.611,4.35,6.45
			c1.839,1.841,3.99,3.291,6.45,4.351S434.031,389.279,436.831,389.279z M421.591,359.699c-1.041,1.72-1.76,3.54-2.16,5.46
			c-0.4,1.92-0.5,3.84-0.3,5.76c0.2,1.92,0.71,3.771,1.53,5.55c0.819,1.78,1.929,3.391,3.33,4.83l3.42-3.359
			c-1.121-1.16-1.971-2.48-2.55-3.96c-0.58-1.479-0.87-3.04-0.87-4.681c0-2.399,0.66-4.659,1.98-6.78L421.591,359.699z
			 M424.171,356.339c-0.44,0.44-0.84,0.891-1.2,1.351c-0.36,0.46-0.701,0.93-1.02,1.409l4.38,2.82c1.2-1.68,2.709-2.989,4.53-3.93
			c1.82-0.939,3.77-1.41,5.85-1.41c2.24,0,4.32,0.54,6.24,1.62l2.34-3.3c-1.8-1.08-3.72-1.801-5.76-2.16h-0.18
			c-0.28-0.04-0.7-0.08-1.26-0.12c-0.561-0.039-1.14-0.061-1.74-0.061c-0.36,0-0.69,0-0.99,0c-0.3,0-0.57,0.041-0.81,0.12
			c-0.6,0.041-1.241,0.16-1.92,0.36l-0.3,0.12l-0.42-1.32C428.95,352.64,426.371,354.14,424.171,356.339z M423.691,382.019
			l0.06,0.061l0.18-0.3L423.691,382.019z M436.831,348.719c-0.801,0-1.611,0.051-2.43,0.15c-0.82,0.101-1.63,0.25-2.43,0.45
			l0.48,1.62c1.479-0.32,2.919-0.48,4.32-0.48c3.52,0,6.759,0.921,9.72,2.76c0.24-0.319,0.45-0.6,0.63-0.84s0.31-0.439,0.39-0.6
			C444.311,349.739,440.751,348.719,436.831,348.719z M446.071,353.759c-2.841-1.719-5.94-2.58-9.3-2.58
			c-0.681,0-1.371,0.03-2.07,0.09c-0.7,0.061-1.391,0.19-2.07,0.391l0.18,0.6c0.279-0.079,0.549-0.14,0.81-0.18
			c0.26-0.039,0.53-0.08,0.81-0.12c0.279-0.039,0.579-0.069,0.9-0.09c0.32-0.02,0.66-0.03,1.02-0.03c0.639,0,1.239,0.021,1.8,0.061
			c0.56,0.04,1,0.08,1.32,0.119l0.18,0.061c2.24,0.36,4.26,1.101,6.06,2.22L446.071,353.759z M437.131,379.079
			c1.32-0.039,2.57-0.33,3.75-0.87c1.18-0.54,2.21-1.26,3.09-2.16c0.879-0.899,1.569-1.95,2.07-3.149c0.5-1.2,0.75-2.48,0.75-3.841
			c0-1.359-0.25-2.629-0.75-3.81c-0.5-1.18-1.19-2.22-2.07-3.12c-0.88-0.899-1.911-1.62-3.09-2.16c-1.18-0.54-2.43-0.849-3.75-0.93
			V379.079z M449.251,356.279c-0.76-0.76-1.62-1.46-2.58-2.101l-0.36,0.54c0.96,0.641,1.82,1.341,2.58,2.101
			c0.96,0.96,1.719,1.92,2.28,2.88l0.6-0.3c-0.321-0.561-0.69-1.09-1.11-1.591c-0.42-0.499-0.851-0.989-1.29-1.47L449.251,356.279z"
			/>
		<path fill="#F7931E" d="M461.971,386.699l2.88-3.181v-5.52l0.06-0.12l17.28-19.5h-17.34v-3.72h-2.88v-6.72h37.32v4.268
			l-4.98,5.471v4.748l-0.061,0.12l-15.239,17.193h17.399v1.68h2.881v6.18h-2.881v2.341h-34.439V386.699z M494.311,353.939v2.699
			l4.32-4.739v-3.24h-36l0.06,5.28h2.16v-2.82h29.94l-2.52,2.82H494.311z M462.631,389.219h33.061v-1.62h-30.841v-3.09l-2.22,2.484
			V389.219z M491.311,353.939l1.859-2.101h-27.599v2.101H491.311z M495.691,386.939v-4.74l-19.861-0.053l1.62-1.704h-4.68
			l20.88-23.019v-2.765h-2.039l-26.041,29.1v3.181H495.691z M465.571,382.631l25.08-27.972h-25.08v3h18.24l-18.24,20.54V382.631z
			 M478.051,379.739l15.6-17.63v-3.67l-19.26,21.3H478.051z M495.691,381.419v-1.08h-17.281l-1.02,1.08H495.691z M498.631,386.939
			l-0.061-4.74h-2.16v4.74H498.631z"/>
		<path fill="#F7931E" d="M518.796,352.739h-9.421v1.56h9.421v33.12h-2.221v2.64h-7.92v-2.64h-1.859v-27.479h1.859v-4.98h-1.859
			v-2.94h1.859v-3.96h10.141V352.739z M508.655,354.299v-1.56h-1.14v1.56H508.655z M508.655,386.699v-26.04h-1.14v26.04H508.655z
			 M509.375,348.779v3.239h8.7v-3.239H509.375z M518.075,354.959h-8.7v4.98h7.2v26.76h1.5V354.959z M515.855,386.699v-26.04h-6.48
			v26.04H515.855z M515.855,389.339v-1.92h-6.48v1.92H515.855z"/>
		<path fill="#F7931E" d="M546.935,390.059c-2.561,0-4.98-0.39-7.26-1.17c-2.28-0.779-4.32-1.929-6.12-3.449
			c-2.04-1.681-3.58-3.68-4.62-6c-1.041-2.319-1.561-4.921-1.561-7.801v-20.76h5.58v-2.82h33.061v6.48h-11.4v17.52
			c0,2.481-0.82,4.421-2.46,5.82c-0.681,0.641-1.48,1.12-2.399,1.44c-0.921,0.32-1.9,0.479-2.94,0.479c-1,0-1.971-0.159-2.91-0.479
			c-0.94-0.32-1.79-0.811-2.55-1.471c-0.761-0.659-1.371-1.459-1.83-2.399c-0.46-0.939-0.69-2.05-0.69-3.33v-20.521h-5.159v20.641
			c0,1.521,0.26,3.029,0.779,4.529s1.31,2.851,2.37,4.051c1.06,1.199,2.409,2.181,4.05,2.939c1.64,0.761,3.58,1.141,5.82,1.141
			v-2.58h0.358c3.062-0.04,5.446-0.95,7.156-2.73c1.711-1.779,2.565-4.229,2.565-7.35v-0.36h3.6v0.36c0,2.24-0.38,4.18-1.14,5.819
			c-0.76,1.641-1.75,3.011-2.97,4.11c-1.221,1.101-2.61,1.931-4.17,2.49c-1.561,0.561-3.12,0.88-4.681,0.96v4.439H546.935z
			 M528.095,351.599v20.04c0,5.521,1.959,9.94,5.88,13.261c1.68,1.4,3.619,2.48,5.82,3.239c2.199,0.761,4.5,1.161,6.899,1.2v-3.72
			c-1.72,0-3.4-0.29-5.04-0.87c-1.641-0.579-3.11-1.43-4.41-2.55c-1.3-1.119-2.34-2.51-3.12-4.17c-0.779-1.659-1.17-3.59-1.17-5.79
			v-20.641H528.095z M539.555,372.059c0,0.841,0.14,1.681,0.42,2.521c0.279,0.84,0.72,1.59,1.32,2.25c0.6,0.66,1.359,1.2,2.279,1.62
			s2,0.63,3.24,0.63c1.92,0,3.56-0.579,4.92-1.74c1.479-1.279,2.22-3.039,2.22-5.28v-18.239h11.341v-5.04h-31.62v2.1h5.88V372.059z
			 M547.414,383.039v1.86c1.479-0.04,2.94-0.33,4.381-0.87c1.439-0.54,2.729-1.32,3.869-2.34c1.141-1.021,2.08-2.28,2.82-3.78
			s1.13-3.271,1.17-5.311h-2.1c-0.081,3.12-1.021,5.61-2.82,7.471C552.935,381.929,550.494,382.919,547.414,383.039z"/>
		<path fill="#F7931E" d="M599.649,389.939l-19.26-29.58v29.58h-9.3v-39.54h6.3l-1.62-2.46h8.46l12.24,18.84v-18.84h7.56v2.46h4.5
			v39.18l-4.5-6.9v7.261H599.649z M579.67,357.959l20.34,31.26h3.3v-7.62l-6.12-9.42v8.7l-19.38-29.76h-6v38.1h7.86V357.959z
			 M578.229,350.399h5.64l12.601,19.38v-1.681l-12.66-19.439h-6.78L578.229,350.399z M578.649,351.119l17.82,27.36v-7.381
			l-12.96-19.979H578.649z M597.189,367.859l3.66,5.64v-23.1h2.46v-1.74h-6.12V367.859z M597.189,370.859l6.12,9.42v-29.16h-1.74
			v24.72l-4.38-6.66V370.859z M604.029,381.359l3.78,5.819v-36.06h-3.78V381.359z"/>
		<path fill="#F7931E" d="M617.295,389.939v-39.9h10.32v-2.1h21.36v2.1h1.92v39.9H617.295z M650.235,389.219v-38.46h-1.26v6.84
			h-20.641v5.94h12.9v9.72h-12.9v6.721h21.12v7.68h-26.04v-15.061h4.2v-8.34h-4.2v-7.38h4.2v-6.12h-9.6v38.46H650.235z
			 M627.615,363.539v-5.94h-3.479v5.94H627.615z M648.735,386.939v-6.24h-21.12v-7.44h-3.479v13.681H648.735z M648.315,350.039
			v-1.38h-19.98v1.38H648.315z M648.315,356.879v-6.12h-19.98v6.12H648.315z M640.516,372.599v-8.34h-12.181v8.34H640.516z"/>
	</g>
	<g>
		<path fill="#0000FF" d="M331.353,389.939v-39.9h10.32v-2.1h21.36v2.1h1.92v39.9H331.353z M364.292,389.219v-38.46h-1.26v6.84
			h-20.64v5.94h12.9v9.72h-12.9v6.721h21.12v7.68h-26.04v-15.061h4.2v-8.34h-4.2v-7.38h4.2v-6.12h-9.6v38.46H364.292z
			 M341.672,363.539v-5.94h-3.48v5.94H341.672z M362.792,386.939v-6.24h-21.12v-7.44h-3.48v13.681H362.792z M362.373,350.039v-1.38
			h-19.98v1.38H362.373z M362.373,356.879v-6.12h-19.98v6.12H362.373z M354.572,372.599v-8.34h-12.18v8.34H354.572z"/>
		<path fill="#0000FF" d="M384.776,390.059h-6.54v-3h-4.32v-26.579h4.32v-7.86h-4.14v-4.62h7.56c2,0,3.939,0.011,5.82,0.03
			c1.88,0.021,3.22,0.029,4.02,0.029c0.84,0,1.73,0.011,2.67,0.03c0.939,0.021,1.629,0.051,2.07,0.09
			c3.24,0.24,5.859,1.001,7.86,2.28c2.16,1.32,3.6,3.2,4.32,5.64c0.08,0.161,0.16,0.441,0.24,0.841
			c0.08,0.399,0.159,0.84,0.24,1.319c0.04,0.28,0.06,0.671,0.06,1.17c0,0.501,0,0.791,0,0.87c0,0.641-0.07,1.4-0.21,2.28
			c-0.141,0.88-0.37,1.7-0.69,2.46c-0.681,1.68-1.62,3.06-2.82,4.14l-0.24,0.181l-1.56-1.38l0.3-0.24
			c0.999-0.92,1.76-2.04,2.28-3.36c0.36-0.879,0.6-1.779,0.72-2.7v-0.06c0.039-0.279,0.06-0.56,0.06-0.84c0-0.279,0-0.56,0-0.84
			c0-0.04-0.011-0.23-0.03-0.57c-0.021-0.34-0.03-0.609-0.03-0.811c-0.081-0.319-0.15-0.649-0.21-0.989s-0.13-0.609-0.21-0.811
			c-0.6-2.04-1.8-3.6-3.6-4.68c-1.68-1.08-3.94-1.74-6.78-1.98c-0.32-0.039-1.11-0.069-2.37-0.09c-1.26-0.02-2.73-0.029-4.41-0.029
			s-3.441,0-5.28,0c-1.84,0-3.48,0-4.92,0v2.039c1.479,0,3.12,0,4.92,0c1.8,0,3.52,0,5.16,0c1.64,0,3.06,0.011,4.26,0.03
			c1.2,0.021,1.92,0.03,2.16,0.03c2.28,0.199,4.1,0.738,5.46,1.617c1.52,0.958,2.52,2.275,3,3.951l0.18,0.539
			c0.04,0.16,0.069,0.32,0.09,0.479c0.02,0.159,0.05,0.319,0.09,0.479c0,0.16,0.009,0.539,0.03,1.139
			c0.02,0.599-0.01,1.178-0.09,1.736v0.06c-0.12,0.64-0.3,1.218-0.54,1.736c-0.4,1.039-1.08,1.957-2.04,2.755
			c-0.96,0.799-1.9,1.396-2.82,1.796l9.42,13.652h-3.06l5.52,7.921h-8.88l-14.64-21.061h-2.4V390.059z M374.636,361.199v25.14h3.6
			v-25.14H374.636z M404.516,367.979l0.48,0.42c1.04-1,1.839-2.2,2.4-3.601c0.28-0.72,0.5-1.509,0.66-2.37
			c0.159-0.859,0.24-1.569,0.24-2.13c0-0.079-0.011-0.369-0.03-0.87c-0.021-0.499-0.051-0.87-0.09-1.109
			c-0.081-0.44-0.16-0.84-0.24-1.2c-0.081-0.36-0.141-0.64-0.18-0.84c-0.72-2.24-2.061-3.979-4.02-5.221
			c-1.92-1.199-4.44-1.92-7.56-2.159c-0.72-0.04-2.26-0.1-4.62-0.181h-16.8v3.3h3.48v-2.76h8.22c1.04,0,2.09,0,3.15,0
			c1.06,0,2.02,0.011,2.88,0.03c0.859,0.021,1.609,0.04,2.25,0.06c0.639,0.021,1.059,0.03,1.26,0.03c2.88,0.24,5.24,0.94,7.08,2.101
			c1.92,1.16,3.219,2.84,3.9,5.039c0.04,0.041,0.11,0.271,0.21,0.69c0.1,0.42,0.17,0.851,0.21,1.29c0.04,0.2,0.069,0.48,0.09,0.84
			c0.02,0.36,0.03,0.561,0.03,0.601c0,0.32,0,0.62,0,0.899c0,0.28-0.04,0.561-0.12,0.84v0.061c-0.12,1.04-0.36,2-0.72,2.88
			c-0.24,0.641-0.55,1.24-0.93,1.8C405.365,366.979,404.956,367.499,404.516,367.979z M404.696,381.299h2.22l-9.24-13.364
			l0.48-0.119c0.919-0.321,1.869-0.871,2.85-1.652c0.979-0.78,1.65-1.651,2.01-2.613c0.12-0.239,0.21-0.499,0.27-0.779
			s0.129-0.561,0.21-0.842v-0.061c0.08-0.479,0.12-1.011,0.12-1.592c0-0.58-0.021-0.95-0.06-1.11c-0.04-0.16-0.06-0.301-0.06-0.421
			c0-0.119-0.04-0.259-0.12-0.421c0-0.119-0.04-0.3-0.12-0.54c-0.48-1.521-1.38-2.702-2.7-3.543c-1.281-0.801-3-1.302-5.16-1.502
			c-0.24,0-0.95-0.01-2.13-0.03c-1.18-0.02-2.59-0.03-4.23-0.03c-1.641,0-3.36-0.009-5.16-0.029c-1.8-0.021-3.44-0.03-4.92-0.03
			v7.86h3.24v-6h0.3c0.12,0,0.77,0,1.95,0c1.179,0,2.479,0,3.9,0c1.419,0,2.75,0.01,3.99,0.029c1.239,0.021,1.98,0.03,2.22,0.03
			c1.6,0.12,2.96,0.521,4.08,1.203c1.119,0.683,1.86,1.665,2.22,2.947c0.08,0.2,0.129,0.4,0.15,0.601
			c0.02,0.201,0.049,0.401,0.09,0.603c0.04,0.24,0.06,0.48,0.06,0.721c0,0.722-0.081,1.343-0.24,1.864v0.061
			c-0.081,0.321-0.16,0.582-0.24,0.781c-0.441,1.164-1.17,2.066-2.19,2.708c-1.02,0.641-2.23,1.002-3.63,1.082L404.696,381.299z
			 M378.956,361.199v25.14h3.12v-18.18h2.04v-2.16h-1.92v-4.8H378.956z M378.956,389.339h5.22v-20.46h-1.32v18.18h-3.9V389.339z
			 M401.396,381.299h2.46l-10.32-14.939h0.66h0.54c1.68-0.08,2.91-0.47,3.69-1.17c0.78-0.7,1.31-1.41,1.59-2.131
			c0.04-0.119,0.08-0.229,0.12-0.329c0.04-0.1,0.08-0.211,0.12-0.33v-0.061c0.12-0.52,0.18-1.1,0.18-1.74
			c0-0.079-0.021-0.319-0.06-0.72c-0.04-0.399-0.1-0.72-0.18-0.96c-0.36-1.119-1.02-1.979-1.98-2.58c-0.88-0.6-2.121-0.96-3.72-1.08
			c-0.201,0-0.831-0.009-1.89-0.029c-1.06-0.021-2.23-0.03-3.51-0.03c-1.281,0-2.514,0-3.701,0c-1.188,0-2.014,0-2.479,0v5.28h1.86
			v4.859h5.46L401.396,381.299z M382.916,365.339h1.26v-4.14h-1.26V365.339z M402.176,389.219h7.14l-4.98-7.2h-3.36l-11.1-16.02
			h-5.1v2.16h2.76L402.176,389.219z"/>
		<path fill="#0000FF" d="M457.831,368.759v0.3c0,2.921-0.55,5.641-1.65,8.16c-1.101,2.521-2.61,4.74-4.53,6.66
			c-1.92,1.92-4.14,3.42-6.66,4.5s-5.241,1.62-8.16,1.62c-2.88,0-5.601-0.55-8.16-1.65c-2.56-1.1-4.791-2.6-6.69-4.5
			c-1.9-1.899-3.4-4.129-4.5-6.689c-1.101-2.56-1.65-5.28-1.65-8.16c0-4.08,1.1-7.86,3.3-11.34l0.24-0.3l2.04,1.319
			c0.639-0.96,1.399-1.899,2.28-2.819c2.319-2.24,5-3.819,8.04-4.74l-0.66-2.34l0.36-0.061c1.719-0.479,3.519-0.72,5.4-0.72
			c2.799,0,5.54,0.561,8.22,1.68c0.279,0.12,0.6,0.271,0.96,0.45c0.36,0.18,0.709,0.37,1.05,0.57c0.339,0.2,0.65,0.381,0.93,0.54
			c0.279,0.16,0.459,0.28,0.54,0.359c-0.041,0.041-0.081,0.091-0.12,0.15c-0.041,0.06-0.201,0.291-0.48,0.69l-0.84,1.14
			c1.04,0.72,1.959,1.48,2.76,2.28l0.12,0.12c1.04,1.04,1.92,2.159,2.64,3.359l0.18,0.36l-1.86,0.899l-0.18-0.239
			c-0.681-1.12-1.46-2.12-2.34-3c-0.84-0.841-1.68-1.54-2.52-2.101l-2.76,3.84l-0.3-0.18c-0.92-0.56-1.9-0.97-2.94-1.229
			c-1.041-0.26-2.1-0.391-3.18-0.391c-1.96,0-3.79,0.44-5.49,1.32c-1.701,0.88-3.13,2.1-4.29,3.66l1.62,1.08l-0.18,0.3
			c-1.08,1.641-1.62,3.44-1.62,5.399c0,1.36,0.25,2.641,0.75,3.841c0.5,1.199,1.19,2.25,2.07,3.149c0.879,0.9,1.91,1.62,3.09,2.16
			c1.179,0.54,2.43,0.831,3.75,0.87v-20.7h0.36c1.479,0,2.87,0.28,4.17,0.84c1.299,0.561,2.439,1.32,3.42,2.28
			c0.98,0.96,1.75,2.091,2.31,3.39c0.56,1.301,0.84,2.691,0.84,4.17c0,1.44-0.27,2.812-0.81,4.11c-0.54,1.301-1.281,2.43-2.22,3.39
			c-0.94,0.96-2.04,1.731-3.3,2.311c-1.26,0.58-2.61,0.891-4.05,0.93v6.96c1.28-0.079,2.439-0.219,3.48-0.42
			c2.439-0.52,4.66-1.509,6.66-2.97c2-1.46,3.64-3.271,4.92-5.43c1.6-2.761,2.4-5.74,2.4-8.94v-0.3L457.831,368.759z
			 M436.831,389.279c2.76,0,5.36-0.52,7.8-1.561c2.439-1.039,4.58-2.46,6.42-4.26c1.839-1.8,3.3-3.909,4.38-6.33
			c1.08-2.42,1.64-5.01,1.68-7.77h-1.8c-0.041,1.6-0.27,3.149-0.69,4.649s-1.03,2.931-1.83,4.29c-1.32,2.241-3.03,4.11-5.13,5.61
			s-4.41,2.53-6.93,3.09c-0.64,0.16-1.281,0.27-1.92,0.33c-0.64,0.06-1.3,0.09-1.98,0.09h-0.42v-7.62
			c-1.44-0.039-2.79-0.35-4.05-0.93c-1.26-0.579-2.36-1.351-3.3-2.311c-0.94-0.96-1.68-2.089-2.22-3.39
			c-0.54-1.299-0.81-2.67-0.81-4.11c0-1.959,0.519-3.799,1.56-5.52l-1.02-0.66c-1.241,2.001-1.86,4.14-1.86,6.42
			c0,1.601,0.29,3.12,0.87,4.561c0.58,1.439,1.449,2.721,2.61,3.84l0.24,0.3l-4.44,4.32l-0.24-0.24l-0.06-0.061
			c-1.521-1.479-2.721-3.169-3.6-5.069c-0.88-1.899-1.44-3.85-1.68-5.851c-0.24-1.999-0.15-4.02,0.27-6.06s1.189-3.96,2.31-5.76
			l-1.44-0.9c-2.001,3.201-3,6.741-3,10.62c0,2.801,0.529,5.43,1.59,7.89c1.059,2.46,2.51,4.611,4.35,6.45
			c1.839,1.841,3.99,3.291,6.45,4.351S434.031,389.279,436.831,389.279z M421.591,359.699c-1.041,1.72-1.76,3.54-2.16,5.46
			c-0.4,1.92-0.5,3.84-0.3,5.76c0.2,1.92,0.71,3.771,1.53,5.55c0.819,1.78,1.929,3.391,3.33,4.83l3.42-3.359
			c-1.121-1.16-1.971-2.48-2.55-3.96c-0.58-1.479-0.87-3.04-0.87-4.681c0-2.399,0.66-4.659,1.98-6.78L421.591,359.699z
			 M424.171,356.339c-0.44,0.44-0.84,0.891-1.2,1.351c-0.36,0.46-0.701,0.93-1.02,1.409l4.38,2.82c1.2-1.68,2.709-2.989,4.53-3.93
			c1.82-0.939,3.77-1.41,5.85-1.41c2.24,0,4.32,0.54,6.24,1.62l2.34-3.3c-1.8-1.08-3.72-1.801-5.76-2.16h-0.18
			c-0.28-0.04-0.7-0.08-1.26-0.12c-0.561-0.039-1.14-0.061-1.74-0.061c-0.36,0-0.69,0-0.99,0c-0.3,0-0.57,0.041-0.81,0.12
			c-0.6,0.041-1.241,0.16-1.92,0.36l-0.3,0.12l-0.42-1.32C428.95,352.64,426.371,354.14,424.171,356.339z M423.691,382.019
			l0.06,0.061l0.18-0.3L423.691,382.019z M436.831,348.719c-0.801,0-1.611,0.051-2.43,0.15c-0.82,0.101-1.63,0.25-2.43,0.45
			l0.48,1.62c1.479-0.32,2.919-0.48,4.32-0.48c3.52,0,6.759,0.921,9.72,2.76c0.24-0.319,0.45-0.6,0.63-0.84s0.31-0.439,0.39-0.6
			C444.311,349.739,440.751,348.719,436.831,348.719z M446.071,353.759c-2.841-1.719-5.94-2.58-9.3-2.58
			c-0.681,0-1.371,0.03-2.07,0.09c-0.7,0.061-1.391,0.19-2.07,0.391l0.18,0.6c0.279-0.079,0.549-0.14,0.81-0.18
			c0.26-0.039,0.53-0.08,0.81-0.12c0.279-0.039,0.579-0.069,0.9-0.09c0.32-0.02,0.66-0.03,1.02-0.03c0.639,0,1.239,0.021,1.8,0.061
			c0.56,0.04,1,0.08,1.32,0.119l0.18,0.061c2.24,0.36,4.26,1.101,6.06,2.22L446.071,353.759z M437.131,379.079
			c1.32-0.039,2.57-0.33,3.75-0.87c1.18-0.54,2.21-1.26,3.09-2.16c0.879-0.899,1.569-1.95,2.07-3.149c0.5-1.2,0.75-2.48,0.75-3.841
			c0-1.359-0.25-2.629-0.75-3.81c-0.5-1.18-1.19-2.22-2.07-3.12c-0.88-0.899-1.911-1.62-3.09-2.16c-1.18-0.54-2.43-0.849-3.75-0.93
			V379.079z M449.251,356.279c-0.76-0.76-1.62-1.46-2.58-2.101l-0.36,0.54c0.96,0.641,1.82,1.341,2.58,2.101
			c0.96,0.96,1.719,1.92,2.28,2.88l0.6-0.3c-0.321-0.561-0.69-1.09-1.11-1.591c-0.42-0.499-0.851-0.989-1.29-1.47L449.251,356.279z"
			/>
		<path fill="#0000FF" d="M461.971,386.699l2.88-3.181v-5.52l0.06-0.12l17.28-19.5h-17.34v-3.72h-2.88v-6.72h37.32v4.268
			l-4.98,5.471v4.748l-0.061,0.12l-15.239,17.193h17.399v1.68h2.881v6.18h-2.881v2.341h-34.439V386.699z M494.311,353.939v2.699
			l4.32-4.739v-3.24h-36l0.06,5.28h2.16v-2.82h29.94l-2.52,2.82H494.311z M462.631,389.219h33.061v-1.62h-30.841v-3.09l-2.22,2.484
			V389.219z M491.311,353.939l1.859-2.101h-27.599v2.101H491.311z M495.691,386.939v-4.74l-19.861-0.053l1.62-1.704h-4.68
			l20.88-23.019v-2.765h-2.039l-26.041,29.1v3.181H495.691z M465.571,382.631l25.08-27.972h-25.08v3h18.24l-18.24,20.54V382.631z
			 M478.051,379.739l15.6-17.63v-3.67l-19.26,21.3H478.051z M495.691,381.419v-1.08h-17.281l-1.02,1.08H495.691z M498.631,386.939
			l-0.061-4.74h-2.16v4.74H498.631z"/>
		<path fill="#0000FF" d="M518.796,352.739h-9.421v1.56h9.421v33.12h-2.221v2.64h-7.92v-2.64h-1.859v-27.479h1.859v-4.98h-1.859
			v-2.94h1.859v-3.96h10.141V352.739z M508.655,354.299v-1.56h-1.14v1.56H508.655z M508.655,386.699v-26.04h-1.14v26.04H508.655z
			 M509.375,348.779v3.239h8.7v-3.239H509.375z M518.075,354.959h-8.7v4.98h7.2v26.76h1.5V354.959z M515.855,386.699v-26.04h-6.48
			v26.04H515.855z M515.855,389.339v-1.92h-6.48v1.92H515.855z"/>
		<path fill="#0000FF" d="M546.935,390.059c-2.561,0-4.98-0.39-7.26-1.17c-2.28-0.779-4.32-1.929-6.12-3.449
			c-2.04-1.681-3.58-3.68-4.62-6c-1.041-2.319-1.561-4.921-1.561-7.801v-20.76h5.58v-2.82h33.061v6.48h-11.4v17.52
			c0,2.481-0.82,4.421-2.46,5.82c-0.681,0.641-1.48,1.12-2.399,1.44c-0.921,0.32-1.9,0.479-2.94,0.479c-1,0-1.971-0.159-2.91-0.479
			c-0.94-0.32-1.79-0.811-2.55-1.471c-0.761-0.659-1.371-1.459-1.83-2.399c-0.46-0.939-0.69-2.05-0.69-3.33v-20.521h-5.159v20.641
			c0,1.521,0.26,3.029,0.779,4.529s1.31,2.851,2.37,4.051c1.06,1.199,2.409,2.181,4.05,2.939c1.64,0.761,3.58,1.141,5.82,1.141
			v-2.58h0.358c3.062-0.04,5.446-0.95,7.156-2.73c1.711-1.779,2.565-4.229,2.565-7.35v-0.36h3.6v0.36c0,2.24-0.38,4.18-1.14,5.819
			c-0.76,1.641-1.75,3.011-2.97,4.11c-1.221,1.101-2.61,1.931-4.17,2.49c-1.561,0.561-3.12,0.88-4.681,0.96v4.439H546.935z
			 M528.095,351.599v20.04c0,5.521,1.959,9.94,5.88,13.261c1.68,1.4,3.619,2.48,5.82,3.239c2.199,0.761,4.5,1.161,6.899,1.2v-3.72
			c-1.72,0-3.4-0.29-5.04-0.87c-1.641-0.579-3.11-1.43-4.41-2.55c-1.3-1.119-2.34-2.51-3.12-4.17c-0.779-1.659-1.17-3.59-1.17-5.79
			v-20.641H528.095z M539.555,372.059c0,0.841,0.14,1.681,0.42,2.521c0.279,0.84,0.72,1.59,1.32,2.25c0.6,0.66,1.359,1.2,2.279,1.62
			s2,0.63,3.24,0.63c1.92,0,3.56-0.579,4.92-1.74c1.479-1.279,2.22-3.039,2.22-5.28v-18.239h11.341v-5.04h-31.62v2.1h5.88V372.059z
			 M547.414,383.039v1.86c1.479-0.04,2.94-0.33,4.381-0.87c1.439-0.54,2.729-1.32,3.869-2.34c1.141-1.021,2.08-2.28,2.82-3.78
			s1.13-3.271,1.17-5.311h-2.1c-0.081,3.12-1.021,5.61-2.82,7.471C552.935,381.929,550.494,382.919,547.414,383.039z"/>
		<path fill="#0000FF" d="M599.649,389.939l-19.26-29.58v29.58h-9.3v-39.54h6.3l-1.62-2.46h8.46l12.24,18.84v-18.84h7.56v2.46h4.5
			v39.18l-4.5-6.9v7.261H599.649z M579.67,357.959l20.34,31.26h3.3v-7.62l-6.12-9.42v8.7l-19.38-29.76h-6v38.1h7.86V357.959z
			 M578.229,350.399h5.64l12.601,19.38v-1.681l-12.66-19.439h-6.78L578.229,350.399z M578.649,351.119l17.82,27.36v-7.381
			l-12.96-19.979H578.649z M597.189,367.859l3.66,5.64v-23.1h2.46v-1.74h-6.12V367.859z M597.189,370.859l6.12,9.42v-29.16h-1.74
			v24.72l-4.38-6.66V370.859z M604.029,381.359l3.78,5.819v-36.06h-3.78V381.359z"/>
		<path fill="#0000FF" d="M617.295,389.939v-39.9h10.32v-2.1h21.36v2.1h1.92v39.9H617.295z M650.235,389.219v-38.46h-1.26v6.84
			h-20.641v5.94h12.9v9.72h-12.9v6.721h21.12v7.68h-26.04v-15.061h4.2v-8.34h-4.2v-7.38h4.2v-6.12h-9.6v38.46H650.235z
			 M627.615,363.539v-5.94h-3.479v5.94H627.615z M648.735,386.939v-6.24h-21.12v-7.44h-3.479v13.681H648.735z M648.315,350.039
			v-1.38h-19.98v1.38H648.315z M648.315,356.879v-6.12h-19.98v6.12H648.315z M640.516,372.599v-8.34h-12.181v8.34H640.516z"/>
	</g>
</g>
<polygon fill="#F7931E" points="527,163.546 527.021,164 527,164 527,98 461,98 461,164 461.604,164 494.038,220.62 526.985,164 
	527,164 "/>
<path fill="#F7931E" d="M530,142.674V168h0.021L530,168.159V168h-0.018l-36.272,62.334L458.003,168H458v-25.467
	c-33.29,14.001-56.666,46.92-56.666,85.3c0,51.086,41.413,92.499,92.499,92.499s92.499-41.413,92.499-92.499
	C586.332,189.581,563.112,156.754,530,142.674z"/>
<g>
	<g>
		<g opacity="0.75">
			<polygon points="527,171.667 514.442,191.274 571.667,165.667 516.046,194.051 542,197.5 514.442,196.829 514.5,209.5 
				511.235,196.829 492.01,206.077 509.632,194.051 492.01,182.026 511.235,191.274 			"/>
		</g>
		<polygon fill="#FFFF00" points="527,171.667 514.442,191.274 571.667,165.667 516.046,194.051 542,197.5 514.442,196.829 
			514.5,209.5 511.235,196.829 492.01,206.077 509.632,194.051 492.01,182.026 511.235,191.274 		"/>
	</g>
</g>
</svg>
