<?xml version="1.0" encoding="UTF-8" standalone="no"?>
<svg id="Background" xmlns:rdf="http://www.w3.org/1999/02/22-rdf-syntax-ns#" xmlns="http://www.w3.org/2000/svg" enable-background="new 0 0 960 560" xml:space="preserve" height="560px" viewBox="0 0 960 560" width="960px" version="1.1" y="0px" x="0px" xmlns:cc="http://creativecommons.org/ns#" xmlns:dc="http://purl.org/dc/elements/1.1/">
<g id="text">
	<g id="g3402" fill="#F7931E">
		<path id="path3404" d="m331.35 389.94v-39.9h10.32v-2.1h21.36v2.1h1.92v39.9h-33.6zm32.94-0.72v-38.46h-1.26v6.84h-20.64v5.94h12.9v9.72h-12.9v6.721h21.12v7.68h-26.04v-15.061h4.2v-8.34h-4.2v-7.38h4.2v-6.12h-9.6v38.46h32.22zm-22.62-25.68v-5.94h-3.48v5.94h3.48zm21.12 23.4v-6.24h-21.12v-7.44h-3.48v13.681h24.6zm-0.42-36.9v-1.38h-19.98v1.38h19.98zm0 6.84v-6.12h-19.98v6.12h19.98zm-7.8 15.72v-8.34h-12.18v8.34h12.18z"/>
		<path id="path3406" d="m384.78 390.06h-6.54v-3h-4.32v-26.579h4.32v-7.86h-4.14v-4.62h7.56c2 0 3.939 0.011 5.82 0.03 1.88 0.021 3.22 0.029 4.02 0.029 0.84 0 1.73 0.011 2.67 0.03 0.939 0.021 1.629 0.051 2.07 0.09 3.24 0.24 5.859 1.001 7.86 2.28 2.16 1.32 3.6 3.2 4.32 5.64 0.08 0.161 0.16 0.441 0.24 0.841 0.08 0.399 0.159 0.84 0.24 1.319 0.04 0.28 0.06 0.671 0.06 1.17v0.87c0 0.641-0.07 1.4-0.21 2.28-0.141 0.88-0.37 1.7-0.69 2.46-0.681 1.68-1.62 3.06-2.82 4.14l-0.24 0.181-1.56-1.38 0.3-0.24c0.999-0.92 1.76-2.04 2.28-3.36 0.36-0.879 0.6-1.779 0.72-2.7v-0.06c0.039-0.279 0.06-0.56 0.06-0.84v-0.84c0-0.04-0.011-0.23-0.03-0.57-0.021-0.34-0.03-0.609-0.03-0.811-0.081-0.319-0.15-0.649-0.21-0.989s-0.13-0.609-0.21-0.811c-0.6-2.04-1.8-3.6-3.6-4.68-1.68-1.08-3.94-1.74-6.78-1.98-0.32-0.039-1.11-0.069-2.37-0.09-1.26-0.02-2.73-0.029-4.41-0.029s-3.441 0-5.28 0h-4.92v2.039h4.92 5.16c1.64 0 3.06 0.011 4.26 0.03 1.2 0.021 1.92 0.03 2.16 0.03 2.28 0.199 4.1 0.738 5.46 1.617 1.52 0.958 2.52 2.275 3 3.951l0.18 0.539c0.04 0.16 0.069 0.32 0.09 0.479 0.02 0.159 0.05 0.319 0.09 0.479 0 0.16 0.009 0.539 0.03 1.139 0.02 0.599-0.01 1.178-0.09 1.736v0.06c-0.12 0.64-0.3 1.218-0.54 1.736-0.4 1.039-1.08 1.957-2.04 2.755-0.96 0.799-1.9 1.396-2.82 1.796l9.42 13.652h-3.06l5.52 7.921h-8.88l-14.64-21.061h-2.4v21.17zm-10.14-28.86v25.14h3.6v-25.14h-3.6zm29.88 6.78l0.48 0.42c1.04-1 1.839-2.2 2.4-3.601 0.28-0.72 0.5-1.509 0.66-2.37 0.159-0.859 0.24-1.569 0.24-2.13 0-0.079-0.011-0.369-0.03-0.87-0.021-0.499-0.051-0.87-0.09-1.109-0.081-0.44-0.16-0.84-0.24-1.2-0.081-0.36-0.141-0.64-0.18-0.84-0.72-2.24-2.061-3.979-4.02-5.221-1.92-1.199-4.44-1.92-7.56-2.159-0.72-0.04-2.26-0.1-4.62-0.181h-16.8v3.3h3.48v-2.76h8.22 3.15c1.06 0 2.02 0.011 2.88 0.03 0.859 0.021 1.609 0.04 2.25 0.06 0.639 0.021 1.059 0.03 1.26 0.03 2.88 0.24 5.24 0.94 7.08 2.101 1.92 1.16 3.219 2.84 3.9 5.039 0.04 0.041 0.11 0.271 0.21 0.69 0.1 0.42 0.17 0.851 0.21 1.29 0.04 0.2 0.069 0.48 0.09 0.84 0.02 0.36 0.03 0.561 0.03 0.601v0.899c0 0.28-0.04 0.561-0.12 0.84v0.061c-0.12 1.04-0.36 2-0.72 2.88-0.24 0.641-0.55 1.24-0.93 1.8-0.39 0.56-0.79 1.08-1.23 1.56zm0.18 13.32h2.22l-9.24-13.364 0.48-0.119c0.919-0.321 1.869-0.871 2.85-1.652 0.979-0.78 1.65-1.651 2.01-2.613 0.12-0.239 0.21-0.499 0.27-0.779s0.129-0.561 0.21-0.842v-0.061c0.08-0.479 0.12-1.011 0.12-1.592 0-0.58-0.021-0.95-0.06-1.11-0.04-0.16-0.06-0.301-0.06-0.421 0-0.119-0.04-0.259-0.12-0.421 0-0.119-0.04-0.3-0.12-0.54-0.48-1.521-1.38-2.702-2.7-3.543-1.281-0.801-3-1.302-5.16-1.502-0.24 0-0.95-0.01-2.13-0.03s-2.59-0.03-4.23-0.03c-1.641 0-3.36-0.009-5.16-0.029-1.8-0.021-3.44-0.03-4.92-0.03v7.86h3.24v-6h0.3 1.95 3.9c1.419 0 2.75 0.01 3.99 0.029 1.239 0.021 1.98 0.03 2.22 0.03 1.6 0.12 2.96 0.521 4.08 1.203 1.119 0.683 1.86 1.665 2.22 2.947 0.08 0.2 0.129 0.4 0.15 0.601 0.02 0.201 0.049 0.401 0.09 0.603 0.04 0.24 0.06 0.48 0.06 0.721 0 0.722-0.081 1.343-0.24 1.864v0.061c-0.081 0.321-0.16 0.582-0.24 0.781-0.441 1.164-1.17 2.066-2.19 2.708-1.02 0.641-2.23 1.002-3.63 1.082l9.84 14.18zm-25.74-20.1v25.14h3.12v-18.18h2.04v-2.16h-1.92v-4.8h-3.24zm0 28.14h5.22v-20.46h-1.32v18.18h-3.9v2.28zm22.44-8.04h2.46l-10.32-14.939h1.2c1.68-0.08 2.91-0.47 3.69-1.17s1.31-1.41 1.59-2.131c0.04-0.119 0.08-0.229 0.12-0.329s0.08-0.211 0.12-0.33v-0.061c0.12-0.52 0.18-1.1 0.18-1.74 0-0.079-0.021-0.319-0.06-0.72-0.04-0.399-0.1-0.72-0.18-0.96-0.36-1.119-1.02-1.979-1.98-2.58-0.88-0.6-2.121-0.96-3.72-1.08-0.201 0-0.831-0.009-1.89-0.029-1.06-0.021-2.23-0.03-3.51-0.03h-3.701-2.479v5.28h1.86v4.859h5.46l11.16 15.96zm-18.48-15.96h1.26v-4.14h-1.26v4.14zm19.26 23.88h7.14l-4.98-7.2h-3.36l-11.1-16.02h-5.1v2.16h2.76l14.64 21.06z"/>
		<path id="path3408" d="m457.83 368.76v0.3c0 2.921-0.55 5.641-1.65 8.16-1.101 2.521-2.61 4.74-4.53 6.66s-4.14 3.42-6.66 4.5-5.241 1.62-8.16 1.62c-2.88 0-5.601-0.55-8.16-1.65-2.56-1.1-4.791-2.6-6.69-4.5-1.9-1.899-3.4-4.129-4.5-6.689-1.101-2.56-1.65-5.28-1.65-8.16 0-4.08 1.1-7.86 3.3-11.34l0.24-0.3 2.04 1.319c0.639-0.96 1.399-1.899 2.28-2.819 2.319-2.24 5-3.819 8.04-4.74l-0.66-2.34 0.36-0.061c1.719-0.479 3.519-0.72 5.4-0.72 2.799 0 5.54 0.561 8.22 1.68 0.279 0.12 0.6 0.271 0.96 0.45 0.36 0.18 0.709 0.37 1.05 0.57 0.339 0.2 0.65 0.381 0.93 0.54 0.279 0.16 0.459 0.28 0.54 0.359-0.041 0.041-0.081 0.091-0.12 0.15-0.041 0.06-0.201 0.291-0.48 0.69l-0.84 1.14c1.04 0.72 1.959 1.48 2.76 2.28l0.12 0.12c1.04 1.04 1.92 2.159 2.64 3.359l0.18 0.36-1.86 0.899-0.18-0.239c-0.681-1.12-1.46-2.12-2.34-3-0.84-0.841-1.68-1.54-2.52-2.101l-2.76 3.84-0.3-0.18c-0.92-0.56-1.9-0.97-2.94-1.229-1.041-0.26-2.1-0.391-3.18-0.391-1.96 0-3.79 0.44-5.49 1.32-1.701 0.88-3.13 2.1-4.29 3.66l1.62 1.08-0.18 0.3c-1.08 1.641-1.62 3.44-1.62 5.399 0 1.36 0.25 2.641 0.75 3.841 0.5 1.199 1.19 2.25 2.07 3.149 0.879 0.9 1.91 1.62 3.09 2.16 1.179 0.54 2.43 0.831 3.75 0.87v-20.7h0.36c1.479 0 2.87 0.28 4.17 0.84 1.299 0.561 2.439 1.32 3.42 2.28 0.98 0.96 1.75 2.091 2.31 3.39 0.56 1.301 0.84 2.691 0.84 4.17 0 1.44-0.27 2.812-0.81 4.11-0.54 1.301-1.281 2.43-2.22 3.39-0.94 0.96-2.04 1.731-3.3 2.311s-2.61 0.891-4.05 0.93v6.96c1.28-0.079 2.439-0.219 3.48-0.42 2.439-0.52 4.66-1.509 6.66-2.97 2-1.46 3.64-3.271 4.92-5.43 1.6-2.761 2.4-5.74 2.4-8.94v-0.3l3.24 0.06zm-21 20.52c2.76 0 5.36-0.52 7.8-1.561 2.439-1.039 4.58-2.46 6.42-4.26 1.839-1.8 3.3-3.909 4.38-6.33 1.08-2.42 1.64-5.01 1.68-7.77h-1.8c-0.041 1.6-0.27 3.149-0.69 4.649s-1.03 2.931-1.83 4.29c-1.32 2.241-3.03 4.11-5.13 5.61s-4.41 2.53-6.93 3.09c-0.64 0.16-1.281 0.27-1.92 0.33-0.64 0.06-1.3 0.09-1.98 0.09h-0.42v-7.62c-1.44-0.039-2.79-0.35-4.05-0.93-1.26-0.579-2.36-1.351-3.3-2.311s-1.68-2.089-2.22-3.39c-0.54-1.299-0.81-2.67-0.81-4.11 0-1.959 0.519-3.799 1.56-5.52l-1.02-0.66c-1.241 2.001-1.86 4.14-1.86 6.42 0 1.601 0.29 3.12 0.87 4.561 0.58 1.439 1.449 2.721 2.61 3.84l0.24 0.3-4.44 4.32-0.24-0.24-0.06-0.061c-1.521-1.479-2.721-3.169-3.6-5.069-0.88-1.899-1.44-3.85-1.68-5.851-0.24-1.999-0.15-4.02 0.27-6.06s1.189-3.96 2.31-5.76l-1.44-0.9c-2.001 3.201-3 6.741-3 10.62 0 2.801 0.529 5.43 1.59 7.89 1.059 2.46 2.51 4.611 4.35 6.45 1.839 1.841 3.99 3.291 6.45 4.351s5.09 1.59 7.89 1.59zm-15.24-29.58c-1.041 1.72-1.76 3.54-2.16 5.46s-0.5 3.84-0.3 5.76 0.71 3.771 1.53 5.55c0.819 1.78 1.929 3.391 3.33 4.83l3.42-3.359c-1.121-1.16-1.971-2.48-2.55-3.96-0.58-1.479-0.87-3.04-0.87-4.681 0-2.399 0.66-4.659 1.98-6.78l-4.38-2.82zm2.58-3.36c-0.44 0.44-0.84 0.891-1.2 1.351s-0.701 0.93-1.02 1.409l4.38 2.82c1.2-1.68 2.709-2.989 4.53-3.93 1.82-0.939 3.77-1.41 5.85-1.41 2.24 0 4.32 0.54 6.24 1.62l2.34-3.3c-1.8-1.08-3.72-1.801-5.76-2.16h-0.18c-0.28-0.04-0.7-0.08-1.26-0.12-0.561-0.039-1.14-0.061-1.74-0.061h-0.99c-0.3 0-0.57 0.041-0.81 0.12-0.6 0.041-1.241 0.16-1.92 0.36l-0.3 0.12-0.42-1.32c-2.96 0.8-5.54 2.3-7.74 4.5zm-0.48 25.68l0.06 0.061 0.18-0.3-0.24 0.24zm13.14-33.3c-0.801 0-1.611 0.051-2.43 0.15-0.82 0.101-1.63 0.25-2.43 0.45l0.48 1.62c1.479-0.32 2.919-0.48 4.32-0.48 3.52 0 6.759 0.921 9.72 2.76 0.24-0.319 0.45-0.6 0.63-0.84s0.31-0.439 0.39-0.6c-3.2-2.04-6.76-3.06-10.68-3.06zm9.24 5.04c-2.841-1.719-5.94-2.58-9.3-2.58-0.681 0-1.371 0.03-2.07 0.09-0.7 0.061-1.391 0.19-2.07 0.391l0.18 0.6c0.279-0.079 0.549-0.14 0.81-0.18 0.26-0.039 0.53-0.08 0.81-0.12 0.279-0.039 0.579-0.069 0.9-0.09 0.32-0.02 0.66-0.03 1.02-0.03 0.639 0 1.239 0.021 1.8 0.061 0.56 0.04 1 0.08 1.32 0.119l0.18 0.061c2.24 0.36 4.26 1.101 6.06 2.22l0.36-0.54zm-8.94 25.32c1.32-0.039 2.57-0.33 3.75-0.87s2.21-1.26 3.09-2.16c0.879-0.899 1.569-1.95 2.07-3.149 0.5-1.2 0.75-2.48 0.75-3.841 0-1.359-0.25-2.629-0.75-3.81-0.5-1.18-1.19-2.22-2.07-3.12-0.88-0.899-1.911-1.62-3.09-2.16-1.18-0.54-2.43-0.849-3.75-0.93v20.04zm12.12-22.8c-0.76-0.76-1.62-1.46-2.58-2.101l-0.36 0.54c0.96 0.641 1.82 1.341 2.58 2.101 0.96 0.96 1.719 1.92 2.28 2.88l0.6-0.3c-0.321-0.561-0.69-1.09-1.11-1.591-0.42-0.499-0.851-0.989-1.29-1.47l-0.12-0.06z"/>
		<path id="path3410" d="m461.97 386.7l2.88-3.181v-5.52l0.06-0.12 17.28-19.5h-17.34v-3.72h-2.88v-6.72h37.32v4.268l-4.98 5.471v4.748l-0.061 0.12-15.239 17.193h17.399v1.68h2.881v6.18h-2.881v2.341h-34.439v-3.24zm32.34-32.76v2.699l4.32-4.739v-3.24h-36l0.06 5.28h2.16v-2.82h29.94l-2.52 2.82h2.04zm-31.68 35.28h33.061v-1.62h-30.841v-3.09l-2.22 2.484v2.23zm28.68-35.28l1.859-2.101h-27.599v2.101h25.74zm4.38 33v-4.74l-19.861-0.053 1.62-1.704h-4.68l20.88-23.019v-2.765h-2.039l-26.041 29.1v3.181h30.12zm-30.12-4.31l25.08-27.972h-25.08v3h18.24l-18.24 20.54v4.43zm12.48-2.89l15.6-17.63v-3.67l-19.26 21.3h3.66zm17.64 1.68v-1.08h-17.281l-1.02 1.08h18.3zm2.94 5.52l-0.061-4.74h-2.16v4.74h2.22z"/>
		<path id="path3412" d="m518.8 352.74h-9.421v1.56h9.421v33.12h-2.221v2.64h-7.92v-2.64h-1.859v-27.479h1.859v-4.98h-1.859v-2.94h1.859v-3.96h10.141v4.68zm-10.14 1.56v-1.56h-1.14v1.56h1.14zm0 32.4v-26.04h-1.14v26.04h1.14zm0.72-37.92v3.239h8.7v-3.239h-8.7zm8.7 6.18h-8.7v4.98h7.2v26.76h1.5v-31.74zm-2.22 31.74v-26.04h-6.48v26.04h6.48zm0 2.64v-1.92h-6.48v1.92h6.48z"/>
		<path id="path3414" d="m546.94 390.06c-2.561 0-4.98-0.39-7.26-1.17-2.28-0.779-4.32-1.929-6.12-3.449-2.04-1.681-3.58-3.68-4.62-6-1.041-2.319-1.561-4.921-1.561-7.801v-20.76h5.58v-2.82h33.061v6.48h-11.4v17.52c0 2.481-0.82 4.421-2.46 5.82-0.681 0.641-1.48 1.12-2.399 1.44-0.921 0.32-1.9 0.479-2.94 0.479-1 0-1.971-0.159-2.91-0.479-0.94-0.32-1.79-0.811-2.55-1.471-0.761-0.659-1.371-1.459-1.83-2.399-0.46-0.939-0.69-2.05-0.69-3.33v-20.521h-5.159v20.641c0 1.521 0.26 3.029 0.779 4.529s1.31 2.851 2.37 4.051c1.06 1.199 2.409 2.181 4.05 2.939 1.64 0.761 3.58 1.141 5.82 1.141v-2.58h0.358c3.062-0.04 5.446-0.95 7.156-2.73 1.711-1.779 2.565-4.229 2.565-7.35v-0.36h3.6v0.36c0 2.24-0.38 4.18-1.14 5.819-0.76 1.641-1.75 3.011-2.97 4.11-1.221 1.101-2.61 1.931-4.17 2.49-1.561 0.561-3.12 0.88-4.681 0.96v4.439h-0.48zm-18.84-38.46v20.04c0 5.521 1.959 9.94 5.88 13.261 1.68 1.4 3.619 2.48 5.82 3.239 2.199 0.761 4.5 1.161 6.899 1.2v-3.72c-1.72 0-3.4-0.29-5.04-0.87-1.641-0.579-3.11-1.43-4.41-2.55-1.3-1.119-2.34-2.51-3.12-4.17-0.779-1.659-1.17-3.59-1.17-5.79v-20.641h-4.86zm11.46 20.46c0 0.841 0.14 1.681 0.42 2.521 0.279 0.84 0.72 1.59 1.32 2.25s1.359 1.2 2.279 1.62 2 0.63 3.24 0.63c1.92 0 3.56-0.579 4.92-1.74 1.479-1.279 2.22-3.039 2.22-5.28v-18.239h11.341v-5.04h-31.62v2.1h5.88v21.18zm7.85 10.98v1.86c1.479-0.04 2.94-0.33 4.381-0.87 1.439-0.54 2.729-1.32 3.869-2.34 1.141-1.021 2.08-2.28 2.82-3.78s1.13-3.271 1.17-5.311h-2.1c-0.081 3.12-1.021 5.61-2.82 7.471-1.79 1.86-4.24 2.85-7.32 2.97z"/>
		<path id="path3416" d="m599.65 389.94l-19.26-29.58v29.58h-9.3v-39.54h6.3l-1.62-2.46h8.46l12.24 18.84v-18.84h7.56v2.46h4.5v39.18l-4.5-6.9v7.261h-4.38zm-19.98-31.98l20.34 31.26h3.3v-7.62l-6.12-9.42v8.7l-19.38-29.76h-6v38.1h7.86v-31.26zm-1.44-7.56h5.64l12.601 19.38v-1.681l-12.66-19.439h-6.78l1.2 1.74zm0.42 0.72l17.82 27.36v-7.381l-12.96-19.979h-4.86zm18.54 16.74l3.66 5.64v-23.1h2.46v-1.74h-6.12v19.2zm0 3l6.12 9.42v-29.16h-1.74v24.72l-4.38-6.66v1.68zm6.84 10.5l3.78 5.819v-36.06h-3.78v30.24z"/>
		<path id="path3418" d="m617.3 389.94v-39.9h10.32v-2.1h21.36v2.1h1.92v39.9h-33.6zm32.94-0.72v-38.46h-1.26v6.84h-20.641v5.94h12.9v9.72h-12.9v6.721h21.12v7.68h-26.04v-15.061h4.2v-8.34h-4.2v-7.38h4.2v-6.12h-9.6v38.46h32.22zm-22.62-25.68v-5.94h-3.479v5.94h3.48zm21.12 23.4v-6.24h-21.12v-7.44h-3.479v13.681h24.6zm-0.42-36.9v-1.38h-19.98v1.38h19.98zm0 6.84v-6.12h-19.98v6.12h19.98zm-7.8 15.72v-8.34h-12.181v8.34h12.18z"/>
	</g>
	<g id="g3420" fill="#00f">
		<path id="path3422" d="m331.35 389.94v-39.9h10.32v-2.1h21.36v2.1h1.92v39.9h-33.6zm32.94-0.72v-38.46h-1.26v6.84h-20.64v5.94h12.9v9.72h-12.9v6.721h21.12v7.68h-26.04v-15.061h4.2v-8.34h-4.2v-7.38h4.2v-6.12h-9.6v38.46h32.22zm-22.62-25.68v-5.94h-3.48v5.94h3.48zm21.12 23.4v-6.24h-21.12v-7.44h-3.48v13.681h24.6zm-0.42-36.9v-1.38h-19.98v1.38h19.98zm0 6.84v-6.12h-19.98v6.12h19.98zm-7.8 15.72v-8.34h-12.18v8.34h12.18z"/>
		<path id="path3424" d="m384.78 390.06h-6.54v-3h-4.32v-26.579h4.32v-7.86h-4.14v-4.62h7.56c2 0 3.939 0.011 5.82 0.03 1.88 0.021 3.22 0.029 4.02 0.029 0.84 0 1.73 0.011 2.67 0.03 0.939 0.021 1.629 0.051 2.07 0.09 3.24 0.24 5.859 1.001 7.86 2.28 2.16 1.32 3.6 3.2 4.32 5.64 0.08 0.161 0.16 0.441 0.24 0.841 0.08 0.399 0.159 0.84 0.24 1.319 0.04 0.28 0.06 0.671 0.06 1.17v0.87c0 0.641-0.07 1.4-0.21 2.28-0.141 0.88-0.37 1.7-0.69 2.46-0.681 1.68-1.62 3.06-2.82 4.14l-0.24 0.181-1.56-1.38 0.3-0.24c0.999-0.92 1.76-2.04 2.28-3.36 0.36-0.879 0.6-1.779 0.72-2.7v-0.06c0.039-0.279 0.06-0.56 0.06-0.84v-0.84c0-0.04-0.011-0.23-0.03-0.57-0.021-0.34-0.03-0.609-0.03-0.811-0.081-0.319-0.15-0.649-0.21-0.989s-0.13-0.609-0.21-0.811c-0.6-2.04-1.8-3.6-3.6-4.68-1.68-1.08-3.94-1.74-6.78-1.98-0.32-0.039-1.11-0.069-2.37-0.09-1.26-0.02-2.73-0.029-4.41-0.029s-3.441 0-5.28 0h-4.92v2.039h4.92 5.16c1.64 0 3.06 0.011 4.26 0.03 1.2 0.021 1.92 0.03 2.16 0.03 2.28 0.199 4.1 0.738 5.46 1.617 1.52 0.958 2.52 2.275 3 3.951l0.18 0.539c0.04 0.16 0.069 0.32 0.09 0.479 0.02 0.159 0.05 0.319 0.09 0.479 0 0.16 0.009 0.539 0.03 1.139 0.02 0.599-0.01 1.178-0.09 1.736v0.06c-0.12 0.64-0.3 1.218-0.54 1.736-0.4 1.039-1.08 1.957-2.04 2.755-0.96 0.799-1.9 1.396-2.82 1.796l9.42 13.652h-3.06l5.52 7.921h-8.88l-14.64-21.061h-2.4v21.17zm-10.14-28.86v25.14h3.6v-25.14h-3.6zm29.88 6.78l0.48 0.42c1.04-1 1.839-2.2 2.4-3.601 0.28-0.72 0.5-1.509 0.66-2.37 0.159-0.859 0.24-1.569 0.24-2.13 0-0.079-0.011-0.369-0.03-0.87-0.021-0.499-0.051-0.87-0.09-1.109-0.081-0.44-0.16-0.84-0.24-1.2-0.081-0.36-0.141-0.64-0.18-0.84-0.72-2.24-2.061-3.979-4.02-5.221-1.92-1.199-4.44-1.92-7.56-2.159-0.72-0.04-2.26-0.1-4.62-0.181h-16.8v3.3h3.48v-2.76h8.22 3.15c1.06 0 2.02 0.011 2.88 0.03 0.859 0.021 1.609 0.04 2.25 0.06 0.639 0.021 1.059 0.03 1.26 0.03 2.88 0.24 5.24 0.94 7.08 2.101 1.92 1.16 3.219 2.84 3.9 5.039 0.04 0.041 0.11 0.271 0.21 0.69 0.1 0.42 0.17 0.851 0.21 1.29 0.04 0.2 0.069 0.48 0.09 0.84 0.02 0.36 0.03 0.561 0.03 0.601v0.899c0 0.28-0.04 0.561-0.12 0.84v0.061c-0.12 1.04-0.36 2-0.72 2.88-0.24 0.641-0.55 1.24-0.93 1.8-0.39 0.56-0.79 1.08-1.23 1.56zm0.18 13.32h2.22l-9.24-13.364 0.48-0.119c0.919-0.321 1.869-0.871 2.85-1.652 0.979-0.78 1.65-1.651 2.01-2.613 0.12-0.239 0.21-0.499 0.27-0.779s0.129-0.561 0.21-0.842v-0.061c0.08-0.479 0.12-1.011 0.12-1.592 0-0.58-0.021-0.95-0.06-1.11-0.04-0.16-0.06-0.301-0.06-0.421 0-0.119-0.04-0.259-0.12-0.421 0-0.119-0.04-0.3-0.12-0.54-0.48-1.521-1.38-2.702-2.7-3.543-1.281-0.801-3-1.302-5.16-1.502-0.24 0-0.95-0.01-2.13-0.03s-2.59-0.03-4.23-0.03c-1.641 0-3.36-0.009-5.16-0.029-1.8-0.021-3.44-0.03-4.92-0.03v7.86h3.24v-6h0.3 1.95 3.9c1.419 0 2.75 0.01 3.99 0.029 1.239 0.021 1.98 0.03 2.22 0.03 1.6 0.12 2.96 0.521 4.08 1.203 1.119 0.683 1.86 1.665 2.22 2.947 0.08 0.2 0.129 0.4 0.15 0.601 0.02 0.201 0.049 0.401 0.09 0.603 0.04 0.24 0.06 0.48 0.06 0.721 0 0.722-0.081 1.343-0.24 1.864v0.061c-0.081 0.321-0.16 0.582-0.24 0.781-0.441 1.164-1.17 2.066-2.19 2.708-1.02 0.641-2.23 1.002-3.63 1.082l9.84 14.18zm-25.74-20.1v25.14h3.12v-18.18h2.04v-2.16h-1.92v-4.8h-3.24zm0 28.14h5.22v-20.46h-1.32v18.18h-3.9v2.28zm22.44-8.04h2.46l-10.32-14.939h1.2c1.68-0.08 2.91-0.47 3.69-1.17s1.31-1.41 1.59-2.131c0.04-0.119 0.08-0.229 0.12-0.329s0.08-0.211 0.12-0.33v-0.061c0.12-0.52 0.18-1.1 0.18-1.74 0-0.079-0.021-0.319-0.06-0.72-0.04-0.399-0.1-0.72-0.18-0.96-0.36-1.119-1.02-1.979-1.98-2.58-0.88-0.6-2.121-0.96-3.72-1.08-0.201 0-0.831-0.009-1.89-0.029-1.06-0.021-2.23-0.03-3.51-0.03h-3.701-2.479v5.28h1.86v4.859h5.46l11.16 15.96zm-18.48-15.96h1.26v-4.14h-1.26v4.14zm19.26 23.88h7.14l-4.98-7.2h-3.36l-11.1-16.02h-5.1v2.16h2.76l14.64 21.06z"/>
		<path id="path3426" d="m457.83 368.76v0.3c0 2.921-0.55 5.641-1.65 8.16-1.101 2.521-2.61 4.74-4.53 6.66s-4.14 3.42-6.66 4.5-5.241 1.62-8.16 1.62c-2.88 0-5.601-0.55-8.16-1.65-2.56-1.1-4.791-2.6-6.69-4.5-1.9-1.899-3.4-4.129-4.5-6.689-1.101-2.56-1.65-5.28-1.65-8.16 0-4.08 1.1-7.86 3.3-11.34l0.24-0.3 2.04 1.319c0.639-0.96 1.399-1.899 2.28-2.819 2.319-2.24 5-3.819 8.04-4.74l-0.66-2.34 0.36-0.061c1.719-0.479 3.519-0.72 5.4-0.72 2.799 0 5.54 0.561 8.22 1.68 0.279 0.12 0.6 0.271 0.96 0.45 0.36 0.18 0.709 0.37 1.05 0.57 0.339 0.2 0.65 0.381 0.93 0.54 0.279 0.16 0.459 0.28 0.54 0.359-0.041 0.041-0.081 0.091-0.12 0.15-0.041 0.06-0.201 0.291-0.48 0.69l-0.84 1.14c1.04 0.72 1.959 1.48 2.76 2.28l0.12 0.12c1.04 1.04 1.92 2.159 2.64 3.359l0.18 0.36-1.86 0.899-0.18-0.239c-0.681-1.12-1.46-2.12-2.34-3-0.84-0.841-1.68-1.54-2.52-2.101l-2.76 3.84-0.3-0.18c-0.92-0.56-1.9-0.97-2.94-1.229-1.041-0.26-2.1-0.391-3.18-0.391-1.96 0-3.79 0.44-5.49 1.32-1.701 0.88-3.13 2.1-4.29 3.66l1.62 1.08-0.18 0.3c-1.08 1.641-1.62 3.44-1.62 5.399 0 1.36 0.25 2.641 0.75 3.841 0.5 1.199 1.19 2.25 2.07 3.149 0.879 0.9 1.91 1.62 3.09 2.16 1.179 0.54 2.43 0.831 3.75 0.87v-20.7h0.36c1.479 0 2.87 0.28 4.17 0.84 1.299 0.561 2.439 1.32 3.42 2.28 0.98 0.96 1.75 2.091 2.31 3.39 0.56 1.301 0.84 2.691 0.84 4.17 0 1.44-0.27 2.812-0.81 4.11-0.54 1.301-1.281 2.43-2.22 3.39-0.94 0.96-2.04 1.731-3.3 2.311s-2.61 0.891-4.05 0.93v6.96c1.28-0.079 2.439-0.219 3.48-0.42 2.439-0.52 4.66-1.509 6.66-2.97 2-1.46 3.64-3.271 4.92-5.43 1.6-2.761 2.4-5.74 2.4-8.94v-0.3l3.24 0.06zm-21 20.52c2.76 0 5.36-0.52 7.8-1.561 2.439-1.039 4.58-2.46 6.42-4.26 1.839-1.8 3.3-3.909 4.38-6.33 1.08-2.42 1.64-5.01 1.68-7.77h-1.8c-0.041 1.6-0.27 3.149-0.69 4.649s-1.03 2.931-1.83 4.29c-1.32 2.241-3.03 4.11-5.13 5.61s-4.41 2.53-6.93 3.09c-0.64 0.16-1.281 0.27-1.92 0.33-0.64 0.06-1.3 0.09-1.98 0.09h-0.42v-7.62c-1.44-0.039-2.79-0.35-4.05-0.93-1.26-0.579-2.36-1.351-3.3-2.311s-1.68-2.089-2.22-3.39c-0.54-1.299-0.81-2.67-0.81-4.11 0-1.959 0.519-3.799 1.56-5.52l-1.02-0.66c-1.241 2.001-1.86 4.14-1.86 6.42 0 1.601 0.29 3.12 0.87 4.561 0.58 1.439 1.449 2.721 2.61 3.84l0.24 0.3-4.44 4.32-0.24-0.24-0.06-0.061c-1.521-1.479-2.721-3.169-3.6-5.069-0.88-1.899-1.44-3.85-1.68-5.851-0.24-1.999-0.15-4.02 0.27-6.06s1.189-3.96 2.31-5.76l-1.44-0.9c-2.001 3.201-3 6.741-3 10.62 0 2.801 0.529 5.43 1.59 7.89 1.059 2.46 2.51 4.611 4.35 6.45 1.839 1.841 3.99 3.291 6.45 4.351s5.09 1.59 7.89 1.59zm-15.24-29.58c-1.041 1.72-1.76 3.54-2.16 5.46s-0.5 3.84-0.3 5.76 0.71 3.771 1.53 5.55c0.819 1.78 1.929 3.391 3.33 4.83l3.42-3.359c-1.121-1.16-1.971-2.48-2.55-3.96-0.58-1.479-0.87-3.04-0.87-4.681 0-2.399 0.66-4.659 1.98-6.78l-4.38-2.82zm2.58-3.36c-0.44 0.44-0.84 0.891-1.2 1.351s-0.701 0.93-1.02 1.409l4.38 2.82c1.2-1.68 2.709-2.989 4.53-3.93 1.82-0.939 3.77-1.41 5.85-1.41 2.24 0 4.32 0.54 6.24 1.62l2.34-3.3c-1.8-1.08-3.72-1.801-5.76-2.16h-0.18c-0.28-0.04-0.7-0.08-1.26-0.12-0.561-0.039-1.14-0.061-1.74-0.061h-0.99c-0.3 0-0.57 0.041-0.81 0.12-0.6 0.041-1.241 0.16-1.92 0.36l-0.3 0.12-0.42-1.32c-2.96 0.8-5.54 2.3-7.74 4.5zm-0.48 25.68l0.06 0.061 0.18-0.3-0.24 0.24zm13.14-33.3c-0.801 0-1.611 0.051-2.43 0.15-0.82 0.101-1.63 0.25-2.43 0.45l0.48 1.62c1.479-0.32 2.919-0.48 4.32-0.48 3.52 0 6.759 0.921 9.72 2.76 0.24-0.319 0.45-0.6 0.63-0.84s0.31-0.439 0.39-0.6c-3.2-2.04-6.76-3.06-10.68-3.06zm9.24 5.04c-2.841-1.719-5.94-2.58-9.3-2.58-0.681 0-1.371 0.03-2.07 0.09-0.7 0.061-1.391 0.19-2.07 0.391l0.18 0.6c0.279-0.079 0.549-0.14 0.81-0.18 0.26-0.039 0.53-0.08 0.81-0.12 0.279-0.039 0.579-0.069 0.9-0.09 0.32-0.02 0.66-0.03 1.02-0.03 0.639 0 1.239 0.021 1.8 0.061 0.56 0.04 1 0.08 1.32 0.119l0.18 0.061c2.24 0.36 4.26 1.101 6.06 2.22l0.36-0.54zm-8.94 25.32c1.32-0.039 2.57-0.33 3.75-0.87s2.21-1.26 3.09-2.16c0.879-0.899 1.569-1.95 2.07-3.149 0.5-1.2 0.75-2.48 0.75-3.841 0-1.359-0.25-2.629-0.75-3.81-0.5-1.18-1.19-2.22-2.07-3.12-0.88-0.899-1.911-1.62-3.09-2.16-1.18-0.54-2.43-0.849-3.75-0.93v20.04zm12.12-22.8c-0.76-0.76-1.62-1.46-2.58-2.101l-0.36 0.54c0.96 0.641 1.82 1.341 2.58 2.101 0.96 0.96 1.719 1.92 2.28 2.88l0.6-0.3c-0.321-0.561-0.69-1.09-1.11-1.591-0.42-0.499-0.851-0.989-1.29-1.47l-0.12-0.06z"/>
		<path id="path3428" d="m461.97 386.7l2.88-3.181v-5.52l0.06-0.12 17.28-19.5h-17.34v-3.72h-2.88v-6.72h37.32v4.268l-4.98 5.471v4.748l-0.061 0.12-15.239 17.193h17.399v1.68h2.881v6.18h-2.881v2.341h-34.439v-3.24zm32.34-32.76v2.699l4.32-4.739v-3.24h-36l0.06 5.28h2.16v-2.82h29.94l-2.52 2.82h2.04zm-31.68 35.28h33.061v-1.62h-30.841v-3.09l-2.22 2.484v2.23zm28.68-35.28l1.859-2.101h-27.599v2.101h25.74zm4.38 33v-4.74l-19.861-0.053 1.62-1.704h-4.68l20.88-23.019v-2.765h-2.039l-26.041 29.1v3.181h30.12zm-30.12-4.31l25.08-27.972h-25.08v3h18.24l-18.24 20.54v4.43zm12.48-2.89l15.6-17.63v-3.67l-19.26 21.3h3.66zm17.64 1.68v-1.08h-17.281l-1.02 1.08h18.3zm2.94 5.52l-0.061-4.74h-2.16v4.74h2.22z"/>
		<path id="path3430" d="m518.8 352.74h-9.421v1.56h9.421v33.12h-2.221v2.64h-7.92v-2.64h-1.859v-27.479h1.859v-4.98h-1.859v-2.94h1.859v-3.96h10.141v4.68zm-10.14 1.56v-1.56h-1.14v1.56h1.14zm0 32.4v-26.04h-1.14v26.04h1.14zm0.72-37.92v3.239h8.7v-3.239h-8.7zm8.7 6.18h-8.7v4.98h7.2v26.76h1.5v-31.74zm-2.22 31.74v-26.04h-6.48v26.04h6.48zm0 2.64v-1.92h-6.48v1.92h6.48z"/>
		<path id="path3432" d="m546.94 390.06c-2.561 0-4.98-0.39-7.26-1.17-2.28-0.779-4.32-1.929-6.12-3.449-2.04-1.681-3.58-3.68-4.62-6-1.041-2.319-1.561-4.921-1.561-7.801v-20.76h5.58v-2.82h33.061v6.48h-11.4v17.52c0 2.481-0.82 4.421-2.46 5.82-0.681 0.641-1.48 1.12-2.399 1.44-0.921 0.32-1.9 0.479-2.94 0.479-1 0-1.971-0.159-2.91-0.479-0.94-0.32-1.79-0.811-2.55-1.471-0.761-0.659-1.371-1.459-1.83-2.399-0.46-0.939-0.69-2.05-0.69-3.33v-20.521h-5.159v20.641c0 1.521 0.26 3.029 0.779 4.529s1.31 2.851 2.37 4.051c1.06 1.199 2.409 2.181 4.05 2.939 1.64 0.761 3.58 1.141 5.82 1.141v-2.58h0.358c3.062-0.04 5.446-0.95 7.156-2.73 1.711-1.779 2.565-4.229 2.565-7.35v-0.36h3.6v0.36c0 2.24-0.38 4.18-1.14 5.819-0.76 1.641-1.75 3.011-2.97 4.11-1.221 1.101-2.61 1.931-4.17 2.49-1.561 0.561-3.12 0.88-4.681 0.96v4.439h-0.48zm-18.84-38.46v20.04c0 5.521 1.959 9.94 5.88 13.261 1.68 1.4 3.619 2.48 5.82 3.239 2.199 0.761 4.5 1.161 6.899 1.2v-3.72c-1.72 0-3.4-0.29-5.04-0.87-1.641-0.579-3.11-1.43-4.41-2.55-1.3-1.119-2.34-2.51-3.12-4.17-0.779-1.659-1.17-3.59-1.17-5.79v-20.641h-4.86zm11.46 20.46c0 0.841 0.14 1.681 0.42 2.521 0.279 0.84 0.72 1.59 1.32 2.25s1.359 1.2 2.279 1.62 2 0.63 3.24 0.63c1.92 0 3.56-0.579 4.92-1.74 1.479-1.279 2.22-3.039 2.22-5.28v-18.239h11.341v-5.04h-31.62v2.1h5.88v21.18zm7.85 10.98v1.86c1.479-0.04 2.94-0.33 4.381-0.87 1.439-0.54 2.729-1.32 3.869-2.34 1.141-1.021 2.08-2.28 2.82-3.78s1.13-3.271 1.17-5.311h-2.1c-0.081 3.12-1.021 5.61-2.82 7.471-1.79 1.86-4.24 2.85-7.32 2.97z"/>
		<path id="path3434" d="m599.65 389.94l-19.26-29.58v29.58h-9.3v-39.54h6.3l-1.62-2.46h8.46l12.24 18.84v-18.84h7.56v2.46h4.5v39.18l-4.5-6.9v7.261h-4.38zm-19.98-31.98l20.34 31.26h3.3v-7.62l-6.12-9.42v8.7l-19.38-29.76h-6v38.1h7.86v-31.26zm-1.44-7.56h5.64l12.601 19.38v-1.681l-12.66-19.439h-6.78l1.2 1.74zm0.42 0.72l17.82 27.36v-7.381l-12.96-19.979h-4.86zm18.54 16.74l3.66 5.64v-23.1h2.46v-1.74h-6.12v19.2zm0 3l6.12 9.42v-29.16h-1.74v24.72l-4.38-6.66v1.68zm6.84 10.5l3.78 5.819v-36.06h-3.78v30.24z"/>
		<path id="path3436" d="m617.3 389.94v-39.9h10.32v-2.1h21.36v2.1h1.92v39.9h-33.6zm32.94-0.72v-38.46h-1.26v6.84h-20.641v5.94h12.9v9.72h-12.9v6.721h21.12v7.68h-26.04v-15.061h4.2v-8.34h-4.2v-7.38h4.2v-6.12h-9.6v38.46h32.22zm-22.62-25.68v-5.94h-3.479v5.94h3.48zm21.12 23.4v-6.24h-21.12v-7.44h-3.479v13.681h24.6zm-0.42-36.9v-1.38h-19.98v1.38h19.98zm0 6.84v-6.12h-19.98v6.12h19.98zm-7.8 15.72v-8.34h-12.181v8.34h12.18z"/>
	</g>
</g>
<polygon id="electrod" points="527 163.55 527.02 164 527 164 527 98 461 98 461 164 461.6 164 494.04 220.62 526.98 164 527 164" fill="#F7931E"/>
<path id="semifabricat" d="m530 142.67v25.33h0.021l-0.02 0.16v-0.16h-0.018l-36.272 62.334-35.71-62.33v-25.467c-33.29 14.001-56.666 46.92-56.666 85.3 0 51.086 41.413 92.499 92.499 92.499s92.499-41.413 92.499-92.499c0-38.25-23.22-71.08-56.33-85.16z" fill="#F7931E"/>
<g id="g3442">
	<g id="g3444">
		<g id="g3446" opacity=".75">
			<polygon id="polygon3448" points="527 171.67 514.44 191.27 571.67 165.67 516.05 194.05 542 197.5 514.44 196.83 514.5 209.5 511.24 196.83 492.01 206.08 509.63 194.05 492.01 182.03 511.24 191.27"/>
		</g>
		<polygon id="polygon3450" points="527 171.67 514.44 191.27 571.67 165.67 516.05 194.05 542 197.5 514.44 196.83 514.5 209.5 511.24 196.83 492.01 206.08 509.63 194.05 492.01 182.03 511.24 191.27" fill="#ff0"/>
	</g>
</g>
</svg>
