<?xml version="1.0" encoding="UTF-8" standalone="no"?>
<svg id="frezare" xmlns:rdf="http://www.w3.org/1999/02/22-rdf-syntax-ns#" xmlns="http://www.w3.org/2000/svg" version="1.1" xml:space="preserve" height="560px" viewBox="0 0 960 560" width="960px" enable-background="new 0 0 960 560" y="0px" x="0px" xmlns:cc="http://creativecommons.org/ns#" xmlns:dc="http://purl.org/dc/elements/1.1/">
	<path id="semifabricat" fill="#F7931E" d="m531.78 318c-8.669 2-17.889 4.166-27.45 4.166-1.835 0-3.656-0.166-5.465-0.166h-314.86v52h593v-56h-245.22z"/>
	<path id="freza" d="m534.44 200.84c-15.423 10.647 15.343-49.804 15.343-49.804-14.927-10.161-35.985 11.589-41.557 31.459s-20.261-48.015-20.261-48.015c-17.699 0.50204-22.253 32.393-11.618 50.806s-46.379-23.752-46.379-23.752c-12.766 12.69 7.1092 38.222 23.758 46.384 16.649 8.1621-50.803 11.615-50.803 11.615-1.9806 19.424 30.972 26.538 48.015 20.261 17.043-6.2777-31.452 41.554-31.452 41.554 11.046 16.89 40.219-0.27294 49.804-15.343 9.5855-15.07 2.6163 52.049 2.6163 52.049 17.859 5.1598 31.285-26.727 28.29-43.767-2.9946-17.041 35.461 38.19 35.461 38.19 16.557-7.489 5.717-39.534-6.4615-51.712-12.179-12.178 51.712 6.4615 51.712 6.4615 5.9461-17.384-24.684-33.881-38.19-35.461-13.506-1.5797 43.767-28.29 43.767-28.29-4.0376-16.794-36.628-13.265-52.05-2.6234zm-23.999 41.507c-9.08 9.08-23.8 9.08-32.88 0s-9.08-23.801 0-32.88c9.08-9.08 23.801-9.08 32.88 0 9.08 9.08 9.0793 23.801 0 32.88z" onmouseover="1" onclick="" fill="#f7931e"/>
	<path id="span" fill="#F7931E" d="m273 237h24l-0.262 0.029c0 41.854 64.226 75.596 143.6 75.596-92.675 0-167.67-33.68-167.67-75.533"/>
</svg>
