<?xml version="1.0" encoding="UTF-8" standalone="no"?>
<svg id="Background" xmlns:rdf="http://www.w3.org/1999/02/22-rdf-syntax-ns#" xmlns="http://www.w3.org/2000/svg" enable-background="new 0 0 960 560" xml:space="preserve" height="560px" viewBox="0 0 960 560" width="960px" version="1.1" y="0px" x="0px" xmlns:cc="http://creativecommons.org/ns#" xmlns:dc="http://purl.org/dc/elements/1.1/">
<path id="semifabricat" d="m494.33 133.67c-50.81 0-92 41.19-92 92 0 50.811 41.19 92 92 92 50.811 0 92-41.19 92-92s-41.19-92-92-92zm0.34 120c-15.464 0-28-12.536-28-28s12.536-28 28-28 28 12.536 28 28-12.54 28-28 28z" fill="#F7931E"/>
<path id="cutit" d="m411.58 273.33h-69.58v5h-209v43h228v-10h35.451c3.71-7.89 13.17-33.59 15.13-38z" fill="#F7931E"/>
<g id="span"><g fill="#F7931E"><path id="path3367" d="m303.44 204.07c0.71-0.809 2.699-2.676 3.457-3.209 0.844-0.594 1.644-1.286 2.508-1.893 1.759-1.237 3.76-2.06 5.898-2.52 4.378-0.943 8.496 0.547 12.193 2.6 1.989 1.105 4.377 2.665 5.731 4.412 5.229 6.746 5.194 16.742 1.263 24.133-3.191 6.005-8.418 13.561-14.708 16.605-3.077 1.488-6.433 2.045-11.709 2.213-4.577 0.146-6.953-0.039-11.096-1.061-2.15-0.53-4.418-1.091-6.467-1.978-1.935-0.839-4.354-2.029-6.164-2.964-0.562-0.291-3.287-1.636-3.257-2.225 0.019-0.35 3.205 0.657 3.518 0.53 0.612-0.247 2.676 0.322 3.282 0.485 2.141 0.578 3.905 0.695 6.013 1.335 4.332 1.315 9.604 0.686 13.6-1.417 5.993-3.151 10.695-8.431 12.837-14.861 0.758-2.275 0.913-4.357 0.784-6.794-0.306-5.753-4.085-14.359-10.342-15.818-1.919-0.447-3.931 0.714-5.626 1.485-0.56 0.25-1.26 0.54-1.7 0.93"/><path id="path3369" d="m365.19 260.05c1.07-0.096 4.699 0.03 8.084-0.662 9.33-1.906 17.412-9.659 20.837-18.394 1.018-2.597 1.851-5.601 2.088-8.389 0.258-3.024 0.092-6.199-0.311-9.204-0.889-6.632-8.559-16.698-16.366-12.902-1.647 0.801-3.267 2.137-4.561 3.362-1.189 1.126-3.884 3.068-4.24 4.238-0.125-0.1 0.651 0.395 0.531 0.297 1.705-2.518 4.083-1.521 5.852 0.212 5.178 5.075 3.09 15.625 0.535 21.408-0.935 2.116-2.115 4.203-3.412 6.118-2.315 3.42-6.147 5.455-10.011 6.532-1.8 0.501-3.654 0.681-5.549 0.713-2.229 0.038-3.88-0.723-5.934-0.938-0.09 2.555 3.547 4.178 5.393 5.169 1.63 0.87 4.74 1.92 7.06 2.43"/><path id="path3371" d="m353.96 211.08c1.144-1.052 2.787-2.394 4.013-3.251 1.085-0.758 2.882-1.768 4.237-1.997 2.811-0.476 6.638 1.19 8.797 2.839 1.345 1.028 2.126 2.501 3.098 3.727 2.205 2.783 2.882 6.46 3.206 9.905 0.662 7.036-0.356 13.38-3.47 19.754-4.165 8.525-13.694 14.52-23.106 14.74-3.188 0.074-6.448-0.277-9.594-0.773-3.505-0.552-6.063-2.355-9.064-4.202-1.419-0.873-2.786-1.831-3.864-3.089-0.833-0.971-2.434-3.124-0.101-1.979 2.877 1.412 5.303 2.539 8.625 2.656 3.148 0.11 6.342 0.19 9.416-0.637 6.252-1.683 10.885-7.128 13.69-12.882 1.892-3.879 3.104-8.119 3.152-12.454 0.03-5.42-1.67-14.92-9.06-12.36"/><path id="path3373" d="m326.55 208.52c0.71-0.809 2.699-2.676 3.457-3.209 0.845-0.595 1.645-1.285 2.508-1.892 1.759-1.237 3.759-2.06 5.898-2.52 4.378-0.943 8.496 0.546 12.193 2.6 1.989 1.104 4.377 2.665 5.731 4.412 1.341 1.729 2.648 3.48 3.26 5.635 1.244 4.381 1.207 6.931 0.37 11.29-0.42 2.194-1.327 5.255-2.365 7.208-1.228 2.308-1.869 3.499-3.19 5.223-2.901 3.786-7.276 9.329-11.519 11.381-3.077 1.489-5.752 3.514-10.986 4.212-4.291 0.573-7.971-0.593-12.114-1.614-2.149-0.53-3.995-1.559-6.044-2.447-1.935-0.839-4.484-3.005-6.292-3.94-0.562-0.291-3.287-1.636-3.256-2.225 0.018-0.35 3.323-0.179 3.637-0.305 0.612-0.247 2.312 0.657 2.917 0.82 2.142 0.578 4.15 1.196 6.258 1.836 4.332 1.315 9.603 0.686 13.6-1.417 1.891-0.994 3.61-2.442 5.236-3.766 1.75-1.423 3.406-3.052 4.752-4.998 1.284-1.856 2.149-4 2.848-6.097 0.758-2.275 0.913-4.357 0.783-6.795-0.229-4.315-2.01-8.675-4.749-11.785-1.481-1.682-3.3-3.498-5.593-4.033-1.92-0.447-3.932 0.714-5.626 1.485-0.58 0.26-1.28 0.55-1.72 0.94"/></g><g fill="#FBB03B"><path id="path3375" d="m394.45 264.48c-4.276-1.132-8.553-2.265-12.03-5.125-3.618-2.976-6.129-7.298-8.054-11.502-1.105-2.413-2.011-5.068-2.492-7.684-1.424-7.754 0.577-15.576 5.037-22.01 1.27-1.832 2.707-3.541 4.219-5.178 0.995-1.076 2.347-1.85 3.24-3.004-1.097-0.783-3.683-0.69-5-0.813-7.989-0.747-15.662 5.289-18.236 12.634-0.884 2.521-1.58 5.501-1.675 8.18-0.511 14.358 7.81 27.413 21.042 32.876 3.86 1.594 7.898 2.729 11.981 3.585 3.76 0.789 8.101 2.237 11.966 1.805-3.24-1.8-6.44-2.84-10-3.78z"/><path id="path3377" d="m363.62 259.75c-7.345-5.064-14.322-10.685-16.96-19.592-2.6-8.775-0.434-18.248 5.657-25.055 3.427-3.829 7.754-6.655 12.038-9.422-5.303-0.353-10.598-0.439-15.629 1.538-5.215 2.049-9.625 5.955-12.237 10.917-4.646 8.83-3.493 20.991 2.89 28.705 4.941 5.97 12.339 9.863 19.675 12.013 1.13 0.34 3.37 1.29 4.56 0.9"/><path id="path3379" d="m352.04 256.51c-3.295 0.175-6.689 0.256-9.913-0.53-9.447-2.308-17.24-9.638-19.811-19.052-0.657-2.406-1.136-5.017-1.254-7.511-0.075-1.56-0.204-3.121-0.184-4.686 0.018-1.419 0.406-2.778 0.594-4.169 0.466-3.448 1.788-6.224 3.639-9.139 1.797-2.829 3.838-5.744 6.513-7.634 1.465-1.037 2.741-1.635 4.412-2.229 1.242-0.441 3.546-1 4.867-0.825-3.009 0.526-6.08 0.144-9.106 0.449-5.725 0.577-13.309 3.291-16.281 8.665-1.527 2.761-2.05 3.583-3.021 6.552-2.268 6.934-1.768 13.884 1.052 20.556 2.943 6.966 8.393 12.014 15.042 15.43 1.942 0.998 3.994 1.92 6.063 2.624 5.53 1.87 11.61 3.09 17.39 1.49"/><path id="path3381" d="m327.5 253.19c-7.052-1.505-12.894-3.863-16.823-10.185-4.563-7.34-6.207-16.579-4.275-25.012 1.744-7.613 5.554-18.186 14.304-19.948 1.854-0.373 4.396-0.205 6.157 0.528 1.48 0.187-2.882-1.239-4.365-1.721-1.339-0.436-2.823-0.251-4.213-0.492-1.312-0.228-3.714-0.239-5.03-0.188-1.468 0.056-2.51-0.156-3.929 0.183-3.244 0.775-5.816 2.06-8.203 4.552-2.198 2.295-2.302 2.942-4.01 5.587-1.819 2.816-2.975 7.472-3.464 10.877-0.996 6.94 0.739 15.427 5.287 20.902 2.405 2.895 5.593 4.954 8.757 6.928 3.246 2.025 6.413 4.263 10.058 5.524 1.95 0.68 7.67 2.5 9.73 2.47"/></g></g>
</svg>
